<?xml version="1.0" standalone="no"?><!DOCTYPE svg PUBLIC "-//W3C//DTD SVG 1.1//EN" "http://www.w3.org/Graphics/SVG/1.1/DTD/svg11.dtd"><svg t="1643267587364" class="icon" viewBox="0 0 1024 1024" version="1.1" xmlns="http://www.w3.org/2000/svg" p-id="2704" xmlns:xlink="http://www.w3.org/1999/xlink" width="200" height="200"><defs><style type="text/css"></style></defs><path d="M416 32s180.96 145.216 192 480c69.056-88.256 96-256 96-256s221.344 261.76 192 512c-25.824 220.32-256 224-256 224a288.384 288.384 0 0 1-160-160 283.232 283.232 0 0 0 32 160s-376.96 14.752-384-288c-3.84-164.224 99.936-198.4 192-352 78.304-130.816 96-320 96-320z m32 160a588.8 588.8 0 0 1-96 224c-109.664 156.032-154.24 170.016-160 288-6.4 127.68 142.56 198.048 224 224-16.288-152.032 64-224 64-224s91.008 183.968 192 224a204.448 204.448 0 0 0 160-160c17.056-109.568-49.12-273.504-96-352-40.544 134.4-192 256-192 256a1456.704 1456.704 0 0 0-32-352 393.248 393.248 0 0 0-64-128z" p-id="2705" fill="#e6e6e6"></path></svg>