<?xml version="1.0" standalone="no"?><!DOCTYPE svg PUBLIC "-//W3C//DTD SVG 1.1//EN" "http://www.w3.org/Graphics/SVG/1.1/DTD/svg11.dtd"><svg t="1643267377837" class="icon" viewBox="0 0 1024 1024" version="1.1" xmlns="http://www.w3.org/2000/svg" p-id="1012" width="200" height="200" xmlns:xlink="http://www.w3.org/1999/xlink"><defs><style type="text/css"></style></defs><path d="M960 544h-33.632a413.28 413.28 0 0 1-39.584 147.456l29.184 16.832a32 32 0 0 1-32 55.424l-29.216-16.864a417.696 417.696 0 0 1-108.16 107.488l17.12 29.632a32 32 0 1 1-55.424 32L691.2 886.4a412 412 0 0 1-147.2 39.968V960a32 32 0 0 1-64 0v-33.6a413.28 413.28 0 0 1-147.456-39.584l-16.832 29.152a32 32 0 1 1-55.424-32l16.864-29.216a417.664 417.664 0 0 1-107.552-108.16l-29.664 17.12a32 32 0 0 1-32-55.424L137.6 691.2A411.968 411.968 0 0 1 97.6 544H64a32 32 0 0 1 0-64h33.6a413.344 413.344 0 0 1 39.584-147.456l-29.152-16.832a32 32 0 1 1 32-55.424l29.184 16.864A417.696 417.696 0 0 1 277.408 169.6l-17.12-29.568a32 32 0 1 1 55.424-32l17.088 29.568A411.968 411.968 0 0 1 480 97.6V64a32 32 0 0 1 64 0v33.6a413.28 413.28 0 0 1 147.456 39.584l16.832-29.184a32 32 0 1 1 55.424 32l-16.864 29.216A417.664 417.664 0 0 1 854.4 277.408l29.664-17.12a32 32 0 0 1 32 55.424l-29.664 17.088a411.968 411.968 0 0 1 39.968 147.2H960a32 32 0 0 1 0 64zM512 160a352 352 0 1 0 352 352A352 352 0 0 0 512 160z m192 384a64 64 0 1 1 64-64 64 64 0 0 1-64 64z m-96-192a32 32 0 1 1 32-32 32 32 0 0 1-32 32z m16 288a48 48 0 1 1-48 48 48 48 0 0 1 48-48zM416 736a96 96 0 1 1 96-96 96 96 0 0 1-96 96z m0-128a32 32 0 1 0 32 32 32 32 0 0 0-32-32z m16-224a48 48 0 1 1 48-48 48 48 0 0 1-48 48zM288 480a32 32 0 1 1 32-32 32 32 0 0 1-32 32z" p-id="1013" fill="#e6e6e6"></path></svg>