<?xml version="1.0" standalone="no"?><!DOCTYPE svg PUBLIC "-//W3C//DTD SVG 1.1//EN" "http://www.w3.org/Graphics/SVG/1.1/DTD/svg11.dtd"><svg t="1643267482490" class="icon" viewBox="0 0 1024 1024" version="1.1" xmlns="http://www.w3.org/2000/svg" p-id="2110" xmlns:xlink="http://www.w3.org/1999/xlink" width="200" height="200"><defs><style type="text/css"></style></defs><path d="M987.2 580.48a481.28 481.28 0 0 1-395.84 404.8 471.968 471.968 0 0 1-158.72 0A479.456 479.456 0 0 1 200 147.84a472.288 472.288 0 0 1 155.2-89.6 481.568 481.568 0 0 1 313.6 0 472.256 472.256 0 0 1 155.2 89.6A477.536 477.536 0 0 1 992 512a482.624 482.624 0 0 1-4.8 68.48zM875.36 704h5.152c0.704-1.312 1.536-2.56 2.208-3.904a404.704 404.704 0 0 0 16.896-37.76c0.768-1.984 1.792-3.84 2.528-5.824a410.912 410.912 0 0 0 13.888-45.792c0.256-1.056 0.384-2.144 0.64-3.2L896 592l-26.24 19.616-24 18.08z m-255.232 209.536A414.976 414.976 0 0 0 839.488 768H832l-60.8-152.032-114.912-17.088L544 683.2v108.8L640 864zM512 627.2l82.368-61.76-43.36-108.384-11.008-5.856h-56l-11.008 5.824-43.36 108.416z m-33.952 299.392a411.2 411.2 0 0 0 67.904 0l16.384-40.832L512 848l-50.336 37.76z m-74.208-13.12L384 864l96-72v-108.8l-112.384-84.288-114.816 17.056L192 768h-7.456a414.912 414.912 0 0 0 219.296 145.472z m-295.872-302.816a411.36 411.36 0 0 0 13.952 45.984c0.576 1.568 1.376 3.04 1.984 4.576a404.608 404.608 0 0 0 17.472 39.008c0.672 1.28 1.472 2.496 2.144 3.776h5.12l29.696-74.368-24.16-18.176L128 592l-20.736 15.584c0.32 0.992 0.448 2.048 0.704 3.072zM225.536 211.776A413.824 413.824 0 0 0 96 512c0 7.84 1.184 15.2 1.6 22.816L128 512l64.48 48.224 181.056-26.88 50.912-127.232L361.856 288H256z m119.872-80.832c-0.928 0.416-1.888 0.704-2.784 1.12-6.016 2.688-11.776 5.792-17.632 8.768s-11.392 5.632-17.024 8.8-11.2 6.912-16.768 10.368c-4.64 2.944-9.312 5.76-13.824 8.896L299.36 224h41.28l2.816-7.072 26.944-67.2zM621.12 240.64L576 128l28.384-21.344a405.952 405.952 0 0 0-184.8 0L448 128l-45.12 112.64 4.928-2.624 79.072 149.184h50.24l79.072-149.152 4.928 2.624z m110.784-81.12c-5.248-3.2-10.368-6.784-15.744-9.824s-11.712-6.08-17.6-9.056-11.328-5.92-17.184-8.544c-0.928-0.416-1.888-0.736-2.816-1.12l-24.928 18.752 26.88 67.2 2.88 7.072h41.28l21.984-55.008c-4.864-3.328-9.824-6.336-14.752-9.472z m66.56 52.224L768 288h-105.856l-62.592 118.08 50.88 127.232 181.056 26.88L896 512l30.4 22.848c0.416-7.648 1.6-14.976 1.6-22.848a413.728 413.728 0 0 0-129.536-300.224z" p-id="2111" fill="#e6e6e6"></path></svg>