<?xml version="1.0" standalone="no"?><!DOCTYPE svg PUBLIC "-//W3C//DTD SVG 1.1//EN" "http://www.w3.org/Graphics/SVG/1.1/DTD/svg11.dtd"><svg t="1643267491006" class="icon" viewBox="0 0 1024 1024" version="1.1" xmlns="http://www.w3.org/2000/svg" p-id="2308" xmlns:xlink="http://www.w3.org/1999/xlink" width="200" height="200"><defs><style type="text/css"></style></defs><path d="M992 512c0 59.2-96.736 110.784-240.192 138.464 47.744 138.048 51.456 247.616 0.192 277.248s-144.32-28.32-240-138.784c-95.68 110.4-188.8 168.384-240 138.784s-47.584-139.168 0.192-277.248C128.672 622.816 32 571.232 32 512s96.736-110.784 240.192-138.464C224.416 235.488 220.8 125.92 272 96.32s144.32 28.32 240 138.752c95.68-110.4 188.8-168.384 240-138.784s47.584 139.168-0.192 277.248C895.296 401.184 992 452.768 992 512z m-272 360.256c29.888-17.248 16.416-100.928-28.16-212-28.448 3.84-58.304 6.752-89.152 8.736-17.088 25.6-34.496 49.952-52.032 72.64 73.792 93.984 139.488 147.968 169.344 130.624z m-63.424-291.2c-2.048 3.616-3.904 7.2-6.016 10.816s-4.256 7.04-6.4 10.624c7.264-0.576 15.04-0.864 22.112-1.504-2.912-6.368-6.56-13.248-9.696-19.808z m9.6-158.208c-7.36-0.672-14.752-1.376-22.4-1.952 2.176 3.712 4.416 7.232 6.592 10.976s3.936 7.584 6.112 11.424q5.152-10.208 9.824-20.32z m-44.8 89.344c-8.576-16-17.024-32-26.464-48.32s-18.784-31.744-28.256-47.072C548.896 416.384 530.656 416 512 416s-36.928 0.672-55.072 1.248c-9.408 15.232-18.784 30.72-28.064 46.752s-17.984 32-26.464 47.68c8.576 16 17.056 32 26.464 48.32s18.784 31.744 28.256 47.072c17.984 0.544 36.224 0.928 54.88 0.928s36.928-0.672 55.072-1.248c9.408-15.232 18.784-30.72 28.064-46.752s17.984-32 26.464-47.68z m-109.408 177.6q6.4-9.024 12.8-18.368c-4.416 0-8.512 0.416-12.8 0.416s-8.512-0.192-12.8-0.224c4.384 6.528 8.672 12.192 13.024 18.304zM304 872.256c29.888 17.248 95.648-36.256 169.6-130.464a1231.648 1231.648 0 0 1-52.256-72.736 1282.624 1282.624 0 0 1-89.12-8.864C287.584 771.2 274.112 855.008 304 872.256z m69.44-280.256c-2.208-3.84-3.936-7.584-6.112-11.424q-4.928 10.336-9.6 20.448c7.36 0.672 14.752 1.376 22.4 1.952-2.272-3.68-4.544-7.232-6.688-10.976z m6.4-170.624c-7.264 0.576-15.04 0.864-22.112 1.504 2.976 6.4 6.624 13.344 9.6 19.936 2.048-3.616 3.904-7.2 6.016-10.816s4.256-7.04 6.464-10.624zM96 512c0 34.528 79.104 64.736 197.664 81.632 10.912-26.592 23.136-53.92 36.992-81.632a1298.176 1298.176 0 0 1-36.992-81.568C175.2 447.328 96 477.472 96 512zM304 151.744c-29.888 17.248-16.416 100.928 28.16 212 28.48-3.84 58.304-6.752 89.152-8.736q25.6-38.4 52.032-72.608C399.552 188.384 333.856 134.4 304 151.744z m207.808 182.4q-6.4 9.024-12.8 18.368c4.416 0 8.512-0.416 12.8-0.416s8.512 0.16 12.8 0.224c-4.16-6.464-8.448-12.128-12.8-18.272z m208.192-182.4c-29.888-17.248-95.648 36.256-169.6 130.464 17.568 22.752 35.2 46.976 52.256 72.736 30.912 1.984 60.608 5.024 89.12 8.864 44.64-111.008 58.112-194.816 28.224-212.064z m10.336 278.624a1265.152 1265.152 0 0 1-37.024 81.664c13.696 27.712 26.08 55.008 36.992 81.568C848.8 576.672 928 546.528 928 512s-79.104-64.736-197.664-81.632zM512 544a32 32 0 1 1 32-32 32 32 0 0 1-32 32z" p-id="2309" fill="#e6e6e6"></path></svg>