<?xml version="1.0" standalone="no"?><!DOCTYPE svg PUBLIC "-//W3C//DTD SVG 1.1//EN" "http://www.w3.org/Graphics/SVG/1.1/DTD/svg11.dtd"><svg t="1643267545888" class="icon" viewBox="0 0 1024 1024" version="1.1" xmlns="http://www.w3.org/2000/svg" p-id="2506" xmlns:xlink="http://www.w3.org/1999/xlink" width="200" height="200"><defs><style type="text/css"></style></defs><path d="M960 512a447.296 447.296 0 0 1-635.296 406.56c-104.448 48.352-190.528 56.832-233.408 13.952-34.784-34.816-35.2-98.336-8.576-176.768l40.224 56.32a82.304 82.304 0 0 0 12.8 75.968c23.232 23.232 69.024 20.48 128.224-3.2a448 448 0 1 1 620.8-621.088c23.456-59.04 26.144-104.736 2.944-128a82.08 82.08 0 0 0-75.648-12.8l-56.16-40.16c78.304-26.592 141.696-26.08 176.448 8.672 42.848 42.848 34.4 128.832-13.824 233.152A445.536 445.536 0 0 1 960 512zM512 128a384 384 0 0 0-179.2 723.488 1408 1408 0 0 0 289.984-228.576 1407.296 1407.296 0 0 0 228.704-290.24A383.776 383.776 0 0 0 512 128z m367.04 270.976a1389.632 1389.632 0 0 1-212.288 267.968 1389.92 1389.92 0 0 1-267.68 212.128A384 384 0 0 0 879.04 398.976zM258.208 480a105.6 105.6 0 0 1-34.624 0 27.168 27.168 0 0 1-25.44-30.656 320.384 320.384 0 0 1 218.144-242.624 24.992 24.992 0 0 1 31.712 18.208 43.968 43.968 0 0 1 0 40.192A255.456 255.456 0 0 0 258.208 480zM624 224A48 48 0 1 1 576 272 48 48 0 0 1 624 224zM256 576a32 32 0 1 1-32 32 32 32 0 0 1 32-32z" p-id="2507" fill="#e6e6e6"></path></svg>