<svg xmlns="http://www.w3.org/2000/svg" fill="none" viewBox="0 0 849 263" height="263" width="849">
<g clip-path="url(#clip0)">
<path fill="white" d="M606.881 8.535C606.83 8.69353 606.741 8.85205 606.741 9.01058C606.748 10.2724 606.615 11.5216 606.444 12.7708C606.247 14.1658 606.178 15.5735 605.95 16.9622C605.601 19.0674 605.196 21.16 604.664 23.2271C604.189 25.085 603.644 26.9176 603.023 28.7248C602.029 31.6226 600.743 34.4 599.292 37.0949C597.867 39.7455 596.163 42.2121 594.326 44.59C593.756 45.3256 593.123 46.0167 592.521 46.7333C588.435 51.6158 583.722 55.896 579.282 60.4425C578.345 61.4064 577.376 62.3385 576.438 63.3023C575.361 64.4057 574.284 65.5153 573.246 66.6567C572.036 67.9756 570.832 69.3073 569.686 70.6833C568.539 72.0529 567.469 73.4923 566.354 74.8874C564.859 76.7579 563.491 78.73 562.205 80.7528C561.274 82.2239 560.412 83.7331 559.532 85.2359C558.05 87.7723 556.751 90.4038 555.497 93.0544C554.521 95.1279 553.635 97.2521 552.754 99.37C551.893 101.444 551.082 103.536 550.265 105.622C549.777 106.865 549.327 108.127 548.846 109.37C547.946 111.697 547.028 114.018 546.128 116.345C545.223 118.678 544.215 120.967 543.069 123.187C541.84 125.565 540.485 127.873 538.825 129.984C538.185 130.796 537.526 131.608 536.792 132.324C535.525 133.554 534.169 134.677 532.636 135.584C530.616 136.782 528.424 137.448 526.137 137.93C524.288 138.316 522.445 138.393 520.576 138.348C520.025 138.336 519.474 138.272 518.929 138.19C517.193 137.93 515.464 137.606 513.773 137.131C511.86 136.598 509.96 136.015 508.116 135.26C506.013 134.404 503.898 133.586 501.845 132.622C499.603 131.576 497.418 130.397 495.22 129.255C494.099 128.672 492.996 128.063 491.901 127.435C490.235 126.484 488.569 125.533 486.928 124.544C484.984 123.377 483.045 122.198 481.132 120.974C479.137 119.699 477.161 118.387 475.191 117.061C473.018 115.597 470.845 114.126 468.698 112.623C466.411 111.012 464.144 109.37 461.889 107.727C459.266 105.812 456.65 103.885 454.04 101.951C451.918 100.372 449.816 98.7676 447.706 97.176C446.522 96.2819 445.325 95.3942 444.153 94.4811C442.841 93.4602 441.549 92.4139 440.244 91.3803C438.997 90.3975 437.742 89.4273 436.495 88.4444C435.386 87.5694 434.284 86.6943 433.175 85.8193C432.029 84.9125 430.889 84.0057 429.742 83.0926C428.874 82.4015 428.013 81.7039 427.151 81.0064C426.037 80.106 424.915 79.1992 423.807 78.2925C422.73 77.4174 421.666 76.536 420.595 75.6546C419.835 75.0332 419.075 74.4118 418.321 73.784C417.84 73.3782 417.359 72.966 416.89 72.5475C416.25 71.9768 415.623 71.3935 414.983 70.8101C413.9 69.8209 412.773 68.8824 411.753 67.8361C410.752 66.8089 409.833 65.6929 408.947 64.5642C408.579 64.1013 408.332 63.5243 408.111 62.9662C407.515 61.4888 408.174 60.303 409.77 59.8401C410.201 59.7133 410.663 59.6626 411.113 59.6753C412.703 59.7006 414.293 59.7514 415.883 59.8338C417.01 59.8909 418.138 60.005 419.259 60.1382C420.253 60.2523 421.242 60.4362 422.236 60.563C422.857 60.6454 423.49 60.6708 424.111 60.7406C424.706 60.8103 425.302 60.9054 425.897 60.9879C426.442 61.0576 426.993 61.1337 427.544 61.1844C428.824 61.2986 430.097 61.3937 431.376 61.5015C432.529 61.6029 433.676 61.7107 434.829 61.8058C436.108 61.9136 437.388 62.0024 438.661 62.1102C439.687 62.199 440.713 62.3004 441.733 62.3956C441.784 62.4019 441.834 62.4019 441.885 62.4019C443.424 62.459 444.963 62.4526 446.496 62.5794C448.213 62.7189 449.936 62.6238 451.646 62.738C455.466 62.9916 459.285 62.8204 463.105 62.8521C465.075 62.8711 467.045 62.8267 469.008 62.6809C470.041 62.6048 471.08 62.6555 472.106 62.5351C472.91 62.4399 473.715 62.4463 474.519 62.4019C475.925 62.3195 477.332 62.2117 478.732 62.0975C479.783 62.0151 480.835 61.9136 481.88 61.7932C483.052 61.66 484.217 61.4951 485.389 61.3556C486.383 61.2415 487.391 61.1591 488.385 61.0322C489.329 60.9118 490.266 60.7406 491.21 60.6074C492.376 60.4362 493.547 60.2967 494.713 60.1128C495.853 59.9352 496.987 59.726 498.121 59.5041C499.571 59.2251 501.022 58.9334 502.466 58.6163C504.354 58.2105 506.254 57.83 508.123 57.3418C510.967 56.6062 513.792 55.7946 516.623 55.0083C520.215 54.0127 523.756 52.8396 527.259 51.5905C530.103 50.5759 532.921 49.4726 535.721 48.3312C538.173 47.3293 540.58 46.226 542.999 45.1543C543.715 44.8373 544.418 44.4949 545.128 44.1588C546.04 43.7276 546.971 43.3281 547.864 42.8589C550.303 41.5844 552.76 40.3352 555.148 38.9655C558.233 37.1964 561.274 35.3575 564.295 33.4805C566.329 32.2187 568.317 30.8807 570.275 29.4984C572.371 28.0146 574.417 26.4547 576.47 24.9138C577.756 23.9437 579.041 22.9671 580.296 21.9589C581.379 21.0902 582.424 20.1771 583.469 19.264C584.818 18.0846 586.155 16.8925 587.491 15.7003C588.093 15.1614 588.701 14.6287 589.278 14.058C592.565 10.8241 595.846 7.58385 599.115 4.34359C599.615 3.84899 600.065 3.29733 600.546 2.77736C601.566 1.68671 602.719 0.75458 604.005 0C604.512 0 605.018 0 605.525 0C606.095 0.367779 606.425 0.913106 606.659 1.52818C606.754 1.77548 606.817 2.02912 606.893 2.28276C606.881 4.3753 606.881 6.45515 606.881 8.535ZM578.3 57.9949C578.25 58.0456 578.199 58.0964 578.148 58.1471C577.724 58.4071 577.287 58.648 576.881 58.9334C575.551 59.8782 574.208 60.8166 572.91 61.8058C571.054 63.2262 569.217 64.6783 567.393 66.1368C567.133 66.346 566.956 66.6757 566.766 66.9674C566.658 67.1323 566.62 67.3415 566.538 67.5254C565.828 69.1107 565.087 70.6896 564.409 72.2875C564.118 72.9787 563.934 73.7143 563.706 74.4245C563.681 74.4498 563.649 74.4688 563.681 74.4498C563.655 74.4752 563.681 74.4498 563.706 74.4245C564.77 73.0865 565.815 71.7359 566.899 70.4106C567.811 69.3009 568.742 68.2103 569.705 67.145C571.022 65.6802 572.365 64.2408 573.721 62.8141C575.127 61.3303 576.565 59.8655 577.984 58.388C578.053 58.3183 578.098 58.2232 578.155 58.1407C578.199 58.0964 578.25 58.0456 578.3 57.9949ZM560.818 68.3434C560.767 68.3942 560.716 68.4449 560.666 68.4956C560.615 68.5463 560.564 68.5971 560.514 68.6478C560.463 68.6985 560.412 68.7493 560.362 68.8C560.336 68.8253 560.311 68.8444 560.343 68.8127C560.311 68.8444 560.336 68.819 560.355 68.7936C560.406 68.7429 560.457 68.6922 560.507 68.6415C560.558 68.5907 560.609 68.54 560.659 68.4893C560.716 68.4449 560.767 68.3942 560.818 68.3434C560.868 68.2927 560.919 68.242 560.97 68.1912C561.084 68.1469 561.217 68.1278 561.312 68.0581C561.882 67.6015 562.42 67.1069 563.009 66.6821C564.099 65.9085 564.783 64.8622 565.22 63.6257C565.245 63.6003 565.271 63.5813 565.245 63.6003C565.271 63.575 565.245 63.6003 565.22 63.6257C565.068 63.7589 564.903 63.873 564.764 64.0189C563.839 64.9827 562.921 65.9592 562.002 66.9294C561.742 67.202 561.457 67.462 561.204 67.741C561.096 67.8679 561.039 68.0391 560.957 68.1912C560.919 68.242 560.868 68.2927 560.818 68.3434ZM581.189 24.3622C581.214 24.3431 581.246 24.3178 581.208 24.3495C581.233 24.3114 581.214 24.3368 581.189 24.3622C581.138 24.4129 581.087 24.47 581.037 24.5207C579.966 25.3577 578.921 26.2264 577.819 27.0254C574.823 29.2004 571.814 31.3563 568.793 33.4932C567.576 34.3493 566.329 35.1546 565.062 35.9345C562.572 37.4627 560.083 39.0036 557.549 40.4557C555.072 41.8697 552.539 43.1759 550.03 44.5393C549.593 44.7802 549.163 45.0402 548.713 45.2938C548.783 45.3192 548.833 45.3573 548.878 45.3509C550.543 44.9958 552.216 44.6471 553.875 44.2666C555.978 43.7847 558.075 43.2774 560.172 42.7638C560.609 42.656 561.014 42.4784 561.381 42.1741C562.363 41.3497 563.396 40.5825 564.397 39.7772C565.651 38.7689 566.911 37.7671 568.146 36.7271C569.09 35.9345 570.002 35.0912 570.927 34.2732C572.194 33.1508 573.467 32.0475 574.715 30.9061C575.741 29.9676 576.742 29.0038 577.737 28.0336C578.75 27.0444 579.751 26.0299 580.745 25.0216C580.878 24.8885 580.942 24.6856 581.043 24.5207C581.087 24.4636 581.138 24.4129 581.189 24.3622ZM579.364 46.1245C579.726 45.7377 580.074 45.3509 580.448 44.9768C581.569 43.8418 582.696 42.7131 583.824 41.5844C583.995 41.4068 584.16 41.2229 584.388 40.982C583.748 40.982 583.197 40.982 582.627 40.982C582.513 41.1088 582.38 41.2293 582.291 41.3751C581.569 42.4975 580.853 43.6262 580.144 44.7612C579.859 45.1987 579.618 45.668 579.364 46.1245C579.339 46.1499 579.314 46.1689 579.339 46.1499C579.314 46.1753 579.339 46.1499 579.364 46.1245ZM578.3 37.7544C578.402 37.7544 578.503 37.7671 578.604 37.748C579.459 37.5768 580.308 37.3803 581.17 37.2408C581.689 37.1583 582.031 36.9174 582.266 36.4545C582.411 36.1628 582.608 35.9028 582.779 35.6238C583.368 34.66 583.95 33.6961 584.533 32.7323C584.559 32.7069 584.584 32.6816 584.559 32.7069C584.578 32.6816 584.559 32.7069 584.533 32.7386C583.963 32.8718 583.646 33.3727 583.222 33.7025C581.562 35.0214 579.941 36.3974 578.3 37.7544ZM562.642 45.8201C562.49 45.8265 562.332 45.8138 562.192 45.8455C561.394 46.0357 560.59 46.2387 559.798 46.4543C559.658 46.4923 559.544 46.6064 559.424 46.6889C557.055 48.3756 554.686 50.0623 552.323 51.7553C552.203 51.8378 552.114 51.9583 552.007 52.0597C551.981 52.0851 551.95 52.1041 551.981 52.0787C551.956 52.1104 551.975 52.0851 552 52.0534C552.513 51.7997 553.039 51.5524 553.54 51.2798C554.604 50.7027 555.668 50.132 556.707 49.517C558.157 48.6673 559.601 47.7859 561.033 46.9045C561.59 46.5747 562.11 46.1816 562.642 45.8201C562.712 45.8011 562.781 45.7884 562.857 45.7694C562.845 45.7377 562.826 45.7124 562.813 45.6806C562.756 45.7314 562.699 45.7758 562.642 45.8201ZM595.327 19.1879C596.157 18.3763 597.018 17.59 597.81 16.7403C599.045 15.4087 600.211 14.0136 601.452 12.6947C602.282 11.8133 603.194 11.0143 604.138 10.1076C604.138 8.7823 604.17 7.33655 604.119 5.89714C604.1 5.46595 604.125 4.91428 603.618 4.64162C603.409 4.71137 603.213 4.7621 603.036 4.85087C602.168 5.28206 601.503 5.98592 600.755 6.58197C600.648 6.67074 600.578 6.83561 600.54 6.98145C600.046 8.86473 599.387 10.6846 598.564 12.4474C597.639 14.4131 596.701 16.3725 595.77 18.3382C595.625 18.6109 595.473 18.9026 595.327 19.1879C595.302 19.2133 595.276 19.2386 595.302 19.2196C595.283 19.2386 595.302 19.2133 595.327 19.1879ZM570.091 60.8864C570.205 60.842 570.344 60.8293 570.433 60.7532C573.315 58.5022 576.299 56.397 579.307 54.3234C581.385 52.8967 583.469 51.4827 585.521 50.0179C586.446 49.3648 587.415 48.756 588.163 47.881C588.619 47.342 589.132 46.8474 589.569 46.2894C589.822 45.9597 590.012 45.5602 590.152 45.167C590.437 44.3744 590.323 43.5754 590.082 42.7828C589.373 41.9394 588.404 41.5463 587.219 41.2356C587.086 41.4068 586.934 41.6478 586.744 41.8443C585.148 43.5057 583.558 45.167 581.936 46.8094C579.333 49.4409 576.717 52.0534 574.088 54.6595C573.562 55.1795 573.1 55.7375 572.732 56.3716C572.593 56.6126 572.441 56.8472 572.302 57.0818C571.561 58.3563 570.826 59.6245 570.091 60.8864C570.072 60.9118 570.04 60.9371 570.066 60.9118C570.047 60.9371 570.066 60.9118 570.091 60.8864ZM561.73 70.9306C561.521 71.0701 561.293 71.1842 561.103 71.3427C559.95 72.3256 558.816 73.3211 557.663 74.304C556.434 75.3503 555.193 76.3775 553.958 77.4174C553.495 77.8042 553.026 78.1847 552.558 78.5715C551.62 79.3387 550.689 80.106 549.752 80.8733C549.055 81.4503 548.364 82.04 547.661 82.6171C546.724 83.378 545.774 84.1262 544.836 84.8871C543.861 85.6861 542.917 86.5168 541.929 87.3031C540.447 88.4762 538.945 89.6175 537.444 90.7589C534.898 92.6993 532.307 94.5699 529.653 96.3517C529.324 96.5736 529.001 96.8019 528.576 97.0872C529.045 97.0872 529.393 97.1063 529.748 97.0809C530.274 97.0492 530.799 96.9858 531.325 96.9477C532.206 96.8843 533.086 96.8463 533.96 96.7829C534.435 96.7448 534.91 96.6941 535.379 96.6243C536.323 96.4848 537.26 96.3263 538.204 96.1932C539.344 96.0283 540.497 95.9205 541.631 95.6986C543.278 95.3815 544.919 95.0074 546.559 94.6333C547.921 94.3162 549.175 93.7455 550.334 92.9466C551.107 92.4139 551.823 91.8305 552.539 91.2218C553.426 90.4609 554.268 89.6936 554.762 88.5839C555.066 87.8928 555.503 87.265 555.864 86.5992C556.244 85.9144 556.694 85.2549 556.973 84.532C557.898 82.0781 558.759 79.6051 559.633 77.1384C560.241 75.4263 560.83 73.7143 561.419 71.9958C561.527 71.6534 561.622 71.2857 561.73 70.9306ZM550.328 97.4106C550.144 97.4804 549.929 97.5184 549.771 97.6262C548.688 98.3681 547.459 98.7549 546.217 99.0783C543.645 99.7505 541.023 100.194 538.394 100.606C538.071 100.657 537.755 100.727 537.431 100.752C536.652 100.816 535.873 100.86 535.094 100.917C534.467 100.962 533.84 101.019 533.213 101.076C532.035 101.171 530.863 101.329 529.685 101.348C527.252 101.393 524.82 101.374 522.388 101.355C521.881 101.348 521.45 101.488 521.026 101.729C519.797 102.426 518.574 103.143 517.326 103.796C513.944 105.559 510.473 107.125 506.888 108.438C504.899 109.167 502.891 109.814 500.845 110.353C499.001 110.835 497.158 111.335 495.264 111.595C494.32 111.722 493.383 111.887 492.439 112.027C491.945 112.096 491.438 112.134 490.944 112.192C490.07 112.287 489.196 112.464 488.328 112.458C485.851 112.445 483.375 112.616 480.898 112.35C479.998 112.255 479.099 112.173 478.206 112.046C476.211 111.767 474.272 111.234 472.353 110.644C471.77 110.467 471.194 110.258 470.516 110.036C470.624 110.181 470.643 110.238 470.681 110.264C474.963 113.117 479.226 115.99 483.66 118.602C486.092 120.035 488.524 121.475 490.988 122.857C492.572 123.751 494.206 124.563 495.834 125.381C497.481 126.205 499.134 127.036 500.819 127.778C502.568 128.551 504.347 129.262 506.146 129.921C507.73 130.504 509.333 131.024 510.954 131.487C512.74 131.995 514.546 132.426 516.408 132.591C517.333 132.673 518.251 132.825 519.176 132.857C520.209 132.889 521.235 132.895 522.273 132.755C523.072 132.648 523.876 132.616 524.655 132.407C525.846 132.09 527.069 131.88 528.183 131.329C530.894 129.984 533.359 128.323 535.379 126.028C536.519 124.734 537.59 123.396 538.508 121.95C539.604 120.226 540.643 118.463 541.606 116.662C542.594 114.81 543.468 112.902 544.367 111.006C544.887 109.909 545.381 108.799 545.862 107.689C546.458 106.326 547.022 104.95 547.617 103.587C548.276 102.084 548.96 100.594 549.625 99.091C549.878 98.533 550.094 97.9686 550.328 97.4106C550.353 97.3853 550.379 97.3599 550.353 97.3853C550.372 97.3599 550.353 97.3853 550.328 97.4106ZM472.752 87.0621C472.746 87.1065 472.739 87.1572 472.733 87.2016C475.229 87.9879 477.718 88.7932 480.22 89.5541C482.361 90.2072 484.496 90.8667 486.662 91.4374C489.551 92.1983 492.458 92.9022 495.365 93.5807C497.101 93.9865 498.849 94.3099 500.598 94.6586C501.187 94.7791 501.782 94.8679 502.377 94.9693C503.435 95.1532 504.499 95.3498 505.564 95.5274C506.628 95.7049 507.692 95.8824 508.762 96.0156C509.858 96.1551 510.96 96.2312 512.063 96.3453C512.538 96.3897 513.013 96.4468 513.481 96.5039C514.28 96.599 515.071 96.7258 515.87 96.7829C517.13 96.8653 518.391 96.897 519.645 96.9541C519.771 96.9604 519.892 96.9858 520.018 96.9985C521.019 97.1253 521.976 97.2394 522.92 96.618C524.693 95.4576 526.568 94.4621 528.335 93.2953C531.008 91.5325 533.637 89.7063 536.247 87.8547C538.363 86.3582 540.434 84.7857 542.505 83.2321C543.69 82.3381 544.849 81.4059 546.014 80.4865C547.06 79.6621 548.13 78.8695 548.985 77.8232C549.999 76.5677 551.044 75.3376 552.095 74.1137C552.938 73.1372 553.799 72.1797 554.667 71.2349C556.016 69.7638 557.359 68.28 558.746 66.8533C561.907 63.6067 565.1 60.3855 568.279 57.1515C568.78 56.6443 569.287 56.1497 569.781 55.6424C569.971 55.4458 570.148 55.2302 570.3 54.9956C571.181 53.6133 572.036 52.2119 572.929 50.8359C574.639 48.1917 576.375 45.5538 578.091 42.9096C578.364 42.4975 578.611 42.0663 578.908 41.5844C578.718 41.578 578.617 41.5527 578.528 41.5717C577.794 41.7365 577.059 41.9077 576.33 42.0916C574.436 42.5799 572.536 43.0745 570.642 43.5754C570.427 43.6325 570.211 43.7213 570.028 43.8418C568.229 45.0466 566.443 46.2767 564.637 47.4815C563.757 48.0712 562.864 48.6419 561.964 49.1936C560.324 50.1891 558.689 51.1783 557.023 52.1358C555.079 53.2582 553.141 54.3932 551.145 55.4268C547.623 57.253 544.082 59.0475 540.428 60.5884C538.73 61.2986 537.032 62.0088 535.335 62.7126C534.499 63.0614 533.625 63.334 532.826 63.7462C530.533 64.9193 528.278 66.1685 525.992 67.3542C524.288 68.242 522.565 69.1043 520.829 69.9287C518.663 70.9496 516.471 71.9261 514.286 72.9153C513.298 73.3655 512.316 73.8221 511.315 74.2406C509.453 75.0142 507.597 75.7941 505.716 76.5233C502.992 77.5823 500.274 78.6539 497.519 79.6241C494.384 80.7274 491.216 81.7483 488.056 82.7692C486.143 83.3906 484.217 83.9804 482.279 84.5257C479.694 85.2549 477.091 85.9271 474.494 86.6246C473.917 86.7767 473.335 86.9163 472.752 87.0621ZM514.679 100.943C514.672 100.898 514.672 100.854 514.666 100.816C513.843 100.74 513.013 100.689 512.189 100.587C511.195 100.467 510.207 100.302 509.212 100.163C508.072 99.9978 506.926 99.8709 505.785 99.6744C504.202 99.4017 502.631 99.1037 501.054 98.7866C499.21 98.4125 497.361 98.0574 495.536 97.6072C492.61 96.8843 489.696 96.1171 486.795 95.2991C483.938 94.5001 481.094 93.6568 478.269 92.7627C474.57 91.5896 470.909 90.3087 467.292 88.9073C466.576 88.6283 465.86 88.4318 465.087 88.7234C464.809 88.8312 464.498 88.8376 464.201 88.8883C462.693 89.1483 461.186 89.4146 459.678 89.6746C458.272 89.9156 456.866 90.1882 455.453 90.3975C453.838 90.6321 452.216 90.8033 450.601 91.0316C449.854 91.1394 449.119 91.3106 448.454 91.6974C447.934 92.0017 447.687 92.4773 447.896 93.0353C448.099 93.5743 448.327 94.1196 448.815 94.4938C449.359 94.9059 449.892 95.3244 450.436 95.7303C451.728 96.6941 453.021 97.6643 454.313 98.6218C455.51 99.5032 456.695 100.404 458.044 101.057C460.248 102.128 462.446 103.206 464.676 104.227C467.102 105.343 469.623 106.225 472.201 106.922C473.455 107.265 474.747 107.48 476.02 107.765C476.781 107.937 477.547 108.045 478.333 108.089C479.207 108.133 480.081 108.343 480.949 108.349C484.027 108.362 487.112 108.507 490.178 108.076C491.546 107.886 492.927 107.81 494.289 107.582C495.866 107.309 497.437 106.948 498.995 106.58C500.141 106.307 501.288 106.003 502.409 105.641C504.588 104.937 506.767 104.221 508.914 103.435C510.428 102.883 511.898 102.211 513.38 101.583C513.836 101.386 514.254 101.152 514.679 100.943ZM441.746 65.8895C441.866 65.8958 441.993 65.8958 442.113 65.9148C443.418 66.1685 444.716 66.4348 446.021 66.6884C447.155 66.904 448.289 67.1133 449.423 67.3098C450.557 67.5127 451.697 67.6966 452.831 67.8932C453.648 68.0327 454.459 68.1849 455.276 68.3181C456.017 68.4385 456.764 68.5527 457.512 68.6415C458.481 68.7619 459.456 68.8507 460.432 68.9712C461.876 69.1551 463.314 69.377 464.758 69.5482C465.879 69.6814 467.007 69.7702 468.134 69.8589C469.566 69.9731 470.991 70.0872 472.423 70.157C473.607 70.214 474.798 70.2774 475.976 70.2838C479.542 70.3091 483.109 70.474 486.675 70.1823C487.777 70.0936 488.892 70.1253 490 70.0555C491.533 69.954 493.066 69.9414 494.593 69.7321C495.638 69.5863 496.696 69.5355 497.741 69.4151C498.887 69.2819 500.034 69.1361 501.174 68.9648C503.081 68.6732 504.987 68.3815 506.888 68.0391C508.712 67.7157 510.542 67.3733 512.348 66.9674C514.894 66.3904 517.44 65.8134 519.955 65.1095C522.812 64.3105 525.637 63.3848 528.462 62.4716C529.849 62.0214 531.256 61.5966 532.548 60.8864C533.276 60.4869 533.998 60.0684 534.72 59.6562C536.469 58.6544 538.223 57.6461 539.971 56.6379C543.139 54.8117 546.217 52.8333 549.277 50.8296C550.645 49.9355 551.981 48.9907 553.331 48.0712C552.969 48.0522 552.634 48.1156 552.298 48.1853C550.898 48.4644 549.492 48.737 548.092 49.016C546.642 49.3014 545.178 49.5423 543.747 49.8974C540.554 50.6837 537.381 51.5461 534.188 52.3514C531.895 52.9284 529.602 53.4674 527.385 54.3171C525.624 54.9956 523.813 55.5346 522.02 56.1243C520.443 56.6443 518.872 57.1896 517.276 57.6461C514.641 58.3944 511.999 59.1046 509.352 59.7957C507.654 60.2396 505.944 60.6454 504.227 61.0322C502.536 61.4127 500.845 61.7488 499.147 62.0912C498.013 62.3195 496.879 62.5224 495.745 62.7253C494.707 62.9092 493.668 63.074 492.629 63.2389C491.463 63.4291 490.304 63.6194 489.139 63.7906C488.22 63.9237 487.296 63.9998 486.371 64.1267C485.376 64.2598 484.388 64.431 483.394 64.5515C482 64.7227 480.6 64.8686 479.2 65.0081C477.997 65.1285 476.8 65.2236 475.596 65.3188C474.241 65.4266 472.891 65.5407 471.536 65.6168C470.579 65.6675 469.623 65.6422 468.666 65.7563C467.647 65.8831 466.608 65.8197 465.569 65.8958C463.732 66.029 461.882 66.0226 460.045 66.048C455.896 66.1114 451.747 66.1875 447.605 65.9465C446.572 65.8895 445.527 65.9275 444.488 65.9275C444.311 65.9275 444.121 65.9592 443.956 65.9085C443.209 65.6612 442.48 65.8007 441.746 65.8895ZM424.314 64.9193C425.416 65.6295 426.429 66.3397 427.493 66.9611C430.205 68.5273 432.916 70.0872 435.665 71.5773C437.533 72.5856 439.459 73.486 441.378 74.3864C443.64 75.4454 445.92 76.4663 448.2 77.4935C449.879 78.2481 451.564 78.9963 453.255 79.7129C455.155 80.5182 457.075 81.2918 458.994 82.0527C460.913 82.82 462.839 83.5555 464.758 84.3164C465.221 84.5003 465.702 84.5257 466.177 84.4559C466.867 84.3481 467.552 84.1706 468.242 84.0438C471.599 83.435 474.937 82.7248 478.244 81.8878C480.505 81.3171 482.767 80.7211 485.022 80.106C486.257 79.7699 487.486 79.3895 488.714 79.028C490.57 78.4764 492.439 77.9627 494.276 77.3667C496.436 76.6755 498.583 75.9526 500.712 75.179C502.821 74.4118 504.899 73.5874 506.983 72.7568C509.136 71.9007 511.277 71.0193 513.424 70.1379C514.102 69.8589 514.761 69.5292 515.432 69.2248C514.096 69.4024 512.81 69.6877 511.512 69.9667C510.46 70.195 509.402 70.4233 508.344 70.6262C507.261 70.8354 506.172 71.0193 505.089 71.1969C504.024 71.3744 502.96 71.552 501.89 71.6915C500.845 71.8246 499.793 71.8944 498.742 72.0149C497.57 72.148 496.404 72.3192 495.232 72.4524C494.187 72.5729 493.136 72.668 492.084 72.7568C490.703 72.8709 489.329 72.9787 487.948 73.0611C486.839 73.1245 485.725 72.985 484.622 73.2133C481.766 73.1436 478.909 73.3465 476.052 73.0928C474.722 72.9787 473.379 73.0675 472.043 72.9343C470.89 72.8138 469.731 72.8138 468.571 72.7568C468.521 72.7568 468.47 72.7504 468.419 72.7441C467.571 72.649 466.728 72.5475 465.879 72.4651C465.176 72.3953 464.473 72.37 463.776 72.2939C462.528 72.1544 461.287 71.9958 460.039 71.8437C459.589 71.7866 459.146 71.7105 458.703 71.6408C457.809 71.5076 456.916 71.3744 456.023 71.2413C455.181 71.1144 454.338 70.994 453.496 70.8608C452.755 70.7403 452.014 70.6135 451.272 70.4803C449.917 70.2457 448.555 70.0238 447.199 69.7638C445.597 69.4594 444.001 69.1424 442.404 68.8063C440.365 68.3815 438.331 67.9566 436.298 67.4937C434.759 67.145 433.226 66.7518 431.693 66.3587C430.426 66.0353 429.172 65.6802 427.905 65.3632C426.765 65.0778 425.644 64.6403 424.314 64.9193ZM440.979 88.4318C441.524 87.7025 442.227 87.2967 443.057 87.0621C443.956 86.8085 444.887 86.7133 445.806 86.6309C447.06 86.5104 448.321 86.5168 449.581 86.4534C450.538 86.409 451.494 86.3582 452.444 86.2885C452.995 86.2505 453.546 86.187 454.091 86.1236C454.864 86.0349 455.63 85.9334 456.403 85.8446C457.005 85.7749 457.607 85.7305 458.202 85.6607C458.284 85.6481 458.36 85.5593 458.468 85.4959C458.373 85.4325 458.316 85.3817 458.246 85.35C456.41 84.5764 454.573 83.8218 452.742 83.0292C450.867 82.2176 448.998 81.3869 447.149 80.5309C444.602 79.3578 442.062 78.1783 439.541 76.9545C435.519 74.9951 431.528 72.985 427.664 70.7213C426.296 69.916 424.915 69.1297 423.56 68.299C421.945 67.3162 420.355 66.2953 418.739 65.3124C418.562 65.2046 418.296 65.1285 418.106 65.1793C417.726 65.268 417.308 65.3314 417.048 65.6612C416.839 66.4601 417.226 67.0625 417.606 67.6586C418.416 68.9458 419.436 70.0745 420.507 71.1398C421.755 72.389 423.091 73.5557 424.39 74.7542C425.023 75.3376 425.657 75.9146 426.29 76.4916C426.74 76.8975 427.189 77.3033 427.658 77.6901C428.412 78.3178 429.185 78.9266 429.939 79.5543C430.946 80.3913 431.927 81.2601 432.954 82.0844C434.873 83.6316 436.818 85.1598 438.75 86.6943C439.484 87.265 440.213 87.8294 440.979 88.4318ZM566.766 40.9185C566.937 40.9185 567.013 40.9376 567.082 40.9185C568.387 40.5508 569.692 40.1893 570.997 39.8025C571.402 39.6821 571.852 39.5996 572.181 39.365C573.594 38.3568 574.994 37.3232 576.356 36.2516C578.072 34.8946 579.764 33.4996 581.448 32.0982C582.88 30.9061 584.28 29.6696 585.692 28.4585C586.326 27.9195 586.978 27.4059 587.58 26.8352C588.163 26.2835 588.803 25.7826 589.17 25.0216C589.506 24.3178 589.943 23.6647 590.323 22.9798C591.482 20.881 592.654 18.7884 593.769 16.6642C594.44 15.3896 595.048 14.0834 595.631 12.7645C595.897 12.1621 596.245 11.5787 596.372 10.7607C596.011 11.1285 595.726 11.3821 595.485 11.6738C594.465 12.923 593.49 14.2039 592.451 15.434C591.121 17.0129 589.759 18.5728 588.384 20.12C587.333 21.3121 586.256 22.4789 585.167 23.6456C584.077 24.8124 582.994 25.9791 581.867 27.1015C579.751 29.2067 577.604 31.2802 575.469 33.3664C575.412 33.4171 575.361 33.4742 575.304 33.5249C574.006 34.679 572.701 35.8331 571.402 36.9935C570.915 37.431 570.427 37.8749 569.926 38.2934C568.9 39.1494 567.861 40.0054 566.766 40.9185ZM603.631 14.3053C603.105 14.7746 602.618 15.174 602.181 15.6179C601.56 16.2457 600.996 16.9305 600.369 17.5519C597.386 20.5132 594.389 23.4617 591.4 26.423C591.33 26.4928 591.273 26.5815 591.222 26.664C590.855 27.2981 590.494 27.9322 590.12 28.5599C588.923 30.5764 587.726 32.5991 586.529 34.6092C586.136 35.2687 585.73 35.9218 585.287 36.6447C586.294 36.7525 587.187 36.8476 588.169 36.9554C588.543 36.5242 588.948 36.0423 589.373 35.5794C590.019 34.8692 590.671 34.1654 591.324 33.4552C591.818 32.9162 592.318 32.3772 592.787 31.8192C593.661 30.7729 594.51 29.714 595.365 28.655C596.252 27.558 597.177 26.4864 598 25.345C599.121 23.7915 600.249 22.2379 601.116 20.5195C601.902 18.966 602.681 17.4061 603.441 15.8398C603.656 15.4087 603.758 14.9394 603.631 14.3053ZM601.674 24.3178C598.348 29.0926 594.491 33.4235 590.589 37.7734C591.906 38.5787 593.23 39.3016 593.655 40.9946C597.329 35.8204 599.97 30.2974 601.674 24.3178ZM515.895 69.0473C515.895 69.0346 515.895 69.0219 515.895 69.0092C515.844 69.0092 515.787 69.0029 515.736 69.0029C515.736 69.0156 515.736 69.0346 515.736 69.0473C515.787 69.0473 515.844 69.0473 515.895 69.0473Z"></path>
<path fill="white" d="M505.482 262.987C505.051 262.892 504.621 262.772 504.184 262.715C502.321 262.474 500.554 261.897 498.812 261.244C496.462 260.362 494.251 259.189 492.212 257.724C491.249 257.033 490.324 256.285 489.425 255.524C488.709 254.922 488.012 254.287 487.379 253.603C485.827 251.935 484.471 250.121 483.356 248.124C482.679 246.907 482.109 245.638 481.659 244.326C481.165 242.899 480.854 241.428 480.658 239.919C480.487 238.574 480.538 237.243 480.538 235.905C480.538 234.732 480.278 233.654 479.676 232.658C479.087 231.688 478.264 230.94 477.275 230.407C476.389 229.932 475.476 229.494 474.545 229.12C472.544 228.321 470.65 227.325 468.813 226.209C466.089 224.554 463.695 222.513 461.566 220.154C460.3 218.746 459.204 217.199 458.273 215.538C457.468 214.098 456.835 212.595 456.334 211.029C455.872 209.59 455.606 208.112 455.428 206.603C455.276 205.335 455.314 204.079 455.308 202.817C455.295 194.371 455.289 185.925 455.321 177.485C455.327 174.942 455.878 172.488 456.784 170.117C457.506 168.221 458.463 166.445 459.653 164.803C460.908 163.078 462.358 161.544 463.98 160.155C465.95 158.462 468.122 157.099 470.447 155.97C472.791 154.835 475.242 153.998 477.782 153.421C479.397 153.053 481.032 152.793 482.685 152.622C484.649 152.419 486.606 152.299 488.576 152.368C489.577 152.406 490.577 152.533 491.578 152.641C492.351 152.723 493.118 152.85 493.89 152.945C495.873 153.186 497.78 153.719 499.673 154.328C502.385 155.196 504.925 156.427 507.325 157.936C509.612 159.375 511.595 161.189 513.349 163.224C515.851 166.116 517.549 169.457 518.379 173.199C518.702 174.644 518.898 176.115 518.892 177.618C518.873 186.952 518.892 196.286 518.866 205.614C518.86 207.561 518.423 209.457 517.815 211.308C516.858 214.225 515.383 216.85 513.438 219.209C512.747 220.046 512.057 220.896 511.278 221.644C509.27 223.572 507.085 225.277 504.659 226.666C502.708 227.788 500.681 228.752 498.584 229.577C497.26 230.096 496.05 230.832 495.094 231.929C494.27 232.88 493.757 233.939 493.776 235.22C493.789 236.108 493.789 236.996 493.776 237.883C493.745 239.678 494.182 241.377 494.84 243.032C495.74 245.283 497.184 247.16 498.977 248.758C500.807 250.388 502.891 251.624 505.191 252.449C506.198 252.81 507.281 252.969 508.326 253.248C508.738 253.355 509.137 253.527 509.53 253.679C510.454 254.04 510.803 254.782 510.809 255.721C510.822 257.217 510.784 258.713 510.822 260.21C510.854 261.516 510.454 262.531 509.131 263C507.914 262.987 506.698 262.987 505.482 262.987ZM505.469 191.328C505.469 187.016 505.469 182.704 505.469 178.398C505.469 177.669 505.45 176.946 505.343 176.211C505.013 173.972 504.228 171.924 502.999 170.041C502.081 168.633 500.959 167.416 499.648 166.357C498.242 165.215 496.703 164.315 495.024 163.655C492.997 162.863 490.875 162.438 488.715 162.279C487.132 162.165 485.529 162.197 483.952 162.432C482.261 162.692 480.601 163.078 479.011 163.744C476.94 164.613 475.058 165.767 473.437 167.327C472.411 168.316 471.568 169.438 470.84 170.669C469.503 172.932 468.737 175.374 468.724 177.992C468.692 186.667 468.718 195.335 468.705 204.01C468.705 205.049 468.813 206.07 468.997 207.085C469.51 209.862 470.757 212.285 472.582 214.409C473.963 216.019 475.66 217.243 477.535 218.232C478.789 218.898 480.12 219.393 481.488 219.71C482.729 220.002 484.002 220.249 485.269 220.319C486.752 220.395 488.24 220.414 489.735 220.23C491.616 219.995 493.447 219.602 495.208 218.892C498.039 217.751 500.415 216.007 502.277 213.591C504.367 210.864 505.488 207.795 505.476 204.327C505.457 200.002 505.469 195.665 505.469 191.328Z"></path>
<path fill="white" d="M242.025 213.223C242.532 212.512 243.204 211.993 243.957 211.561C245.205 210.845 246.453 210.128 247.688 209.393C248.309 209.031 248.968 208.765 249.671 208.682C250.672 208.562 251.577 208.898 252.306 209.596C252.996 210.261 253.611 211.01 254.276 211.701C255.878 213.362 257.652 214.821 259.578 216.089C261.567 217.401 263.689 218.46 265.963 219.19C267.401 219.652 268.87 219.989 270.359 220.21C271.816 220.426 273.285 220.369 274.748 220.369C276.009 220.369 277.244 220.147 278.492 219.957C280.354 219.678 282.121 219.107 283.825 218.359C285.048 217.82 286.194 217.135 287.252 216.285C288.386 215.372 289.368 214.339 290.134 213.102C291.103 211.536 291.769 209.868 291.889 208.004C291.927 207.452 292.028 206.901 292.022 206.349C291.99 203.711 291.078 201.435 289.241 199.52C287.803 198.023 286.049 197.047 284.193 196.229C282.527 195.5 280.766 195.049 278.986 194.701C278.074 194.523 277.136 194.51 276.218 194.345C275.109 194.149 274.001 194.269 272.892 194.193C271.968 194.13 271.043 194.009 270.118 193.921C269.415 193.857 268.712 193.826 268.009 193.737C267.065 193.61 266.121 193.458 265.184 193.28C262.859 192.824 260.572 192.228 258.349 191.416C255.771 190.477 253.338 189.247 251.166 187.567C248.828 185.753 246.865 183.585 245.611 180.852C244.971 179.45 244.502 177.992 244.261 176.457C244.084 175.335 243.97 174.213 243.976 173.071C243.995 171.03 244.439 169.077 245.167 167.181C246.092 164.784 247.53 162.736 249.316 160.897C250.912 159.248 252.73 157.91 254.713 156.762C257.443 155.177 260.388 154.156 263.442 153.433C264.683 153.142 265.963 152.983 267.223 152.78C268.465 152.577 269.732 152.552 270.979 152.444C272.221 152.336 273.45 152.324 274.685 152.355C275.838 152.387 276.991 152.507 278.143 152.634C279.366 152.767 280.595 152.888 281.798 153.135C283.122 153.408 284.433 153.782 285.732 154.175C287.423 154.682 289.064 155.355 290.641 156.147C292.858 157.263 294.942 158.588 296.811 160.231C297.229 160.599 297.653 160.954 298.052 161.34C298.553 161.822 298.825 162.399 298.705 163.116C298.356 164.01 297.552 164.416 296.798 164.872C295.43 165.69 294.062 166.496 292.687 167.288C291.129 168.182 289.558 168.132 288.006 167.276C287.499 166.997 287.043 166.629 286.574 166.286C284.788 164.98 282.85 163.985 280.747 163.281C279.379 162.824 277.985 162.514 276.573 162.279C275.299 162.063 274.007 162.082 272.715 162.114C269.744 162.184 266.849 162.653 264.113 163.839C261.921 164.79 260.015 166.147 258.609 168.106C257.715 169.343 257.101 170.712 256.892 172.26C256.474 175.411 257.582 177.973 259.894 180.027C261.199 181.188 262.751 182 264.392 182.634C266.21 183.337 268.085 183.807 269.998 184.111C271.233 184.308 272.487 184.472 273.754 184.479C274.729 184.485 275.705 184.65 276.68 184.739C277.282 184.796 277.884 184.828 278.486 184.91C279.999 185.126 281.526 185.31 283.021 185.608C284.598 185.918 286.156 186.324 287.708 186.743C289.514 187.231 291.268 187.846 292.953 188.664C294.366 189.342 295.772 190.027 297.064 190.934C298.413 191.879 299.712 192.887 300.814 194.117C302.911 196.451 304.342 199.127 304.982 202.227C305.368 204.104 305.501 205.981 305.381 207.871C305.235 210.084 304.786 212.252 303.949 214.326C303.183 216.241 302.157 218.01 300.884 219.621C300.003 220.73 299.009 221.726 297.932 222.664C295.791 224.529 293.371 225.924 290.806 227.071C288.595 228.061 286.283 228.777 283.901 229.234C282.964 229.411 282.033 229.627 281.095 229.792C280.525 229.893 279.949 229.925 279.372 229.982C278.397 230.077 277.421 230.179 276.446 230.261C276.142 230.286 275.838 230.28 275.534 230.28C274.318 230.28 273.101 230.318 271.885 230.267C270.834 230.229 269.782 230.102 268.731 229.995C267.882 229.906 267.033 229.785 266.191 229.678C264.816 229.5 263.48 229.164 262.143 228.796C259.996 228.206 257.931 227.42 255.923 226.463C253.68 225.391 251.59 224.091 249.601 222.607C247.726 221.206 246.041 219.602 244.477 217.883C243.584 216.9 242.823 215.797 242 214.745C242.025 214.237 242.025 213.73 242.025 213.223Z"></path>
<path fill="white" d="M348.885 195.887C342.652 195.887 336.419 195.893 330.186 195.88C329.02 195.88 327.944 196.166 326.943 196.755C326.189 197.199 325.695 197.865 325.397 198.664C325.176 199.254 325.03 199.863 325.036 200.509C325.055 201.854 325.005 203.198 325.049 204.542C325.119 206.654 325.562 208.683 326.455 210.611C327.374 212.589 328.647 214.314 330.256 215.76C331.808 217.155 333.575 218.22 335.519 218.987C337.027 219.577 338.592 219.945 340.182 220.198C341.607 220.426 343.051 220.388 344.495 220.363C347.339 220.306 350.088 219.723 352.73 218.67C355.308 217.649 357.664 216.241 359.767 214.428C360.648 213.673 361.522 212.906 362.358 212.101C362.979 211.505 363.523 210.839 364.112 210.211C364.733 209.545 365.506 209.279 366.412 209.235C367.311 209.197 368.116 209.438 368.863 209.888C370.396 210.814 371.904 211.784 373.443 212.697C374.171 213.128 374.722 214.39 374.317 215.284C374.146 215.671 373.981 216.077 373.734 216.419C372.619 217.96 371.346 219.368 369.953 220.655C368.223 222.253 366.361 223.679 364.341 224.891C361.908 226.349 359.343 227.535 356.625 228.353C355.137 228.803 353.623 229.183 352.096 229.494C350.722 229.773 349.322 229.963 347.928 230.103C346.649 230.23 345.357 230.236 344.071 230.28C343.463 230.299 342.855 230.312 342.246 230.274C341.043 230.198 339.839 230.116 338.636 229.982C337.565 229.862 336.495 229.716 335.431 229.513C333.48 229.139 331.561 228.625 329.692 227.922C328.317 227.402 326.981 226.806 325.689 226.127C323.852 225.17 322.084 224.085 320.539 222.684C319.437 221.682 318.322 220.674 317.321 219.57C316.219 218.353 315.319 216.977 314.509 215.544C313.527 213.794 312.792 211.949 312.317 210.002C312.045 208.88 311.874 207.738 311.734 206.584C311.589 205.367 311.627 204.162 311.627 202.951C311.614 194.581 311.595 186.21 311.633 177.84C311.652 174.606 312.368 171.499 313.761 168.557C314.566 166.864 315.522 165.253 316.707 163.801C317.745 162.527 318.873 161.341 320.14 160.276C321.381 159.236 322.674 158.278 324.054 157.429C325.676 156.433 327.386 155.634 329.141 154.924C331.39 154.017 333.733 153.434 336.102 152.971C337.04 152.787 337.996 152.755 338.946 152.616C340.878 152.337 342.817 152.273 344.761 152.343C345.787 152.381 346.814 152.495 347.84 152.616C349.037 152.755 350.24 152.876 351.419 153.104C352.673 153.351 353.921 153.668 355.149 154.03C357.379 154.689 359.52 155.583 361.566 156.699C363.162 157.574 364.702 158.538 366.089 159.73C366.855 160.39 367.666 161.005 368.356 161.734C369.566 163.021 370.694 164.378 371.65 165.875C373.215 168.335 374.273 170.992 374.855 173.833C375.102 175.038 375.223 176.268 375.216 177.517C375.191 181.6 375.191 185.684 375.21 189.768C375.223 192.317 373.899 194.289 371.422 195.221C370.668 195.506 369.877 195.627 369.072 195.741C367.685 195.938 366.298 195.855 364.911 195.855C359.577 195.893 354.231 195.887 348.885 195.887ZM343.412 186.737C347.973 186.737 352.533 186.737 357.094 186.737C358.215 186.737 359.229 186.407 360.141 185.76C361.199 185.012 361.769 183.978 361.8 182.691C361.838 181.042 361.794 179.394 361.819 177.745C361.832 176.857 361.699 175.989 361.503 175.126C360.92 172.565 359.792 170.269 358.051 168.31C356.372 166.414 354.37 164.949 352.027 163.941C349.468 162.844 346.801 162.305 344.033 162.254C343.102 162.235 342.17 162.178 341.239 162.375C340.6 162.508 339.928 162.463 339.288 162.59C337.933 162.869 336.596 163.224 335.317 163.757C333.315 164.588 331.497 165.716 329.92 167.2C328.849 168.208 327.969 169.375 327.209 170.637C325.885 172.818 325.22 175.209 325.074 177.732C324.986 179.273 325.017 180.827 325.068 182.374C325.119 183.833 325.701 185.044 326.962 185.887C327.855 186.483 328.83 186.737 329.888 186.737C334.392 186.737 338.902 186.743 343.412 186.737Z"></path>
<path fill="white" d="M420.684 195.887C414.401 195.887 408.117 195.887 401.833 195.887C400.883 195.887 399.977 196.09 399.148 196.54C397.748 197.288 396.975 198.474 396.95 200.078C396.924 201.904 396.899 203.731 396.962 205.557C397.013 206.895 397.323 208.195 397.798 209.45C398.419 211.092 399.268 212.614 400.383 213.971C401.656 215.525 403.176 216.812 404.924 217.808C406.939 218.955 409.099 219.672 411.379 220.078C412.931 220.357 414.489 220.369 416.054 220.363C418.309 220.357 420.501 219.957 422.661 219.317C424.117 218.886 425.524 218.334 426.86 217.624C428.374 216.818 429.806 215.867 431.161 214.802C432.498 213.749 433.708 212.564 434.886 211.352C435.152 211.08 435.38 210.775 435.627 210.496C436.311 209.723 437.115 209.247 438.192 209.241C439.161 209.235 440.016 209.469 440.84 209.989C442.246 210.883 443.69 211.714 445.103 212.595C445.749 212.995 446.205 213.527 446.262 214.358C446.306 215.018 446.154 215.601 445.793 216.134C445.483 216.59 445.16 217.053 444.78 217.453C443.57 218.746 442.398 220.084 441.093 221.276C439.377 222.842 437.483 224.18 435.443 225.328C433.942 226.171 432.409 226.939 430.8 227.554C428.779 228.327 426.714 228.974 424.58 229.38C423.497 229.583 422.413 229.811 421.318 229.957C420.418 230.077 419.5 230.027 418.607 230.16C417.169 230.375 415.731 230.255 414.293 230.287C413.032 230.312 411.785 230.128 410.53 230.02C409.396 229.925 408.288 229.735 407.179 229.519C404.677 229.038 402.258 228.277 399.901 227.287C398.026 226.501 396.266 225.518 394.587 224.39C392.82 223.197 391.185 221.847 389.754 220.268C388.202 218.562 386.859 216.698 385.846 214.618C384.889 212.659 384.186 210.623 383.838 208.461C383.692 207.542 383.54 206.622 383.54 205.684C383.546 196.096 383.534 186.508 383.546 176.921C383.546 175.202 383.888 173.522 384.37 171.873C384.87 170.142 385.58 168.494 386.466 166.927C387.29 165.475 388.234 164.099 389.374 162.875C389.767 162.451 390.121 161.981 390.546 161.582C392.598 159.654 394.796 157.942 397.311 156.642C398.996 155.767 400.712 154.956 402.517 154.385C404.095 153.884 405.71 153.478 407.332 153.129C408.655 152.844 410.011 152.711 411.347 152.514C411.373 152.508 411.398 152.514 411.423 152.514C413.241 152.457 415.053 152.248 416.877 152.362C420.906 152.616 424.871 153.212 428.684 154.613C430.92 155.431 433.061 156.427 435.082 157.701C437.255 159.071 439.225 160.681 440.954 162.571C442.271 164.01 443.443 165.564 444.317 167.314C444.856 168.398 445.382 169.495 445.8 170.631C446.294 171.975 446.617 173.37 446.832 174.797C447.162 176.933 447.111 179.077 447.111 181.226C447.117 184.042 447.117 186.857 447.111 189.673C447.105 190.668 446.902 191.626 446.446 192.513C445.869 193.636 444.995 194.46 443.861 194.98C442.949 195.398 441.967 195.62 440.96 195.766C439.82 195.931 438.693 195.88 437.559 195.887C431.934 195.893 426.309 195.887 420.684 195.887ZM415.332 186.743C416.7 186.743 418.068 186.743 419.436 186.743C422.705 186.743 425.973 186.756 429.242 186.724C430.388 186.718 431.402 186.286 432.27 185.526C433.27 184.65 433.638 183.484 433.695 182.216C433.739 181.176 433.688 180.136 433.707 179.096C433.733 177.904 433.613 176.731 433.41 175.564C433.144 174.036 432.637 172.584 431.877 171.233C430.92 169.534 429.787 167.967 428.254 166.712C427.411 166.021 426.543 165.367 425.612 164.822C422.857 163.205 419.835 162.482 416.687 162.273C414.724 162.146 412.766 162.286 410.822 162.679C408.06 163.237 405.507 164.245 403.252 165.938C401.89 166.959 400.725 168.177 399.718 169.559C398.806 170.821 398.134 172.203 397.634 173.662C397.279 174.682 397.007 175.748 396.969 176.826C396.899 178.855 396.893 180.884 396.969 182.907C397.013 184.023 397.52 184.993 398.476 185.665C399.477 186.369 400.573 186.73 401.802 186.73C406.318 186.737 410.828 186.743 415.332 186.743Z"></path>
<path fill="white" d="M542.575 191.346C542.575 195.785 542.587 200.224 542.568 204.662C542.562 206.197 542.815 207.668 543.328 209.107C543.873 210.642 544.589 212.081 545.558 213.394C546.793 215.055 548.307 216.412 550.055 217.497C551.962 218.682 554.021 219.45 556.212 219.931C558.385 220.407 560.577 220.47 562.762 220.337C565.315 220.185 567.772 219.583 570.11 218.479C572.485 217.357 574.48 215.759 576.222 213.825C577.014 212.944 577.711 211.98 578.465 211.067C578.978 210.445 579.522 209.862 580.276 209.475C581.106 209.057 581.917 209.025 582.753 209.374C583.19 209.558 583.621 209.78 584.032 210.014C585.369 210.775 586.712 211.53 588.029 212.329C588.587 212.665 589.144 213.007 589.562 213.54C590.126 214.25 590.12 214.992 589.676 215.721C588.84 217.103 587.972 218.473 586.87 219.665C586.047 220.553 585.249 221.479 584.355 222.303C582.867 223.679 581.214 224.833 579.453 225.841C577.451 226.989 575.323 227.839 573.137 228.543C571.579 229.044 569.989 229.411 568.38 229.684C566.968 229.919 565.543 230.052 564.111 230.185C562.642 230.324 561.185 230.274 559.721 230.299C558.537 230.318 557.359 230.191 556.187 230.02C555.42 229.906 554.641 229.836 553.875 229.703C552.785 229.513 551.69 229.348 550.625 229.056C548.041 228.346 545.52 227.465 543.157 226.184C541.156 225.099 539.243 223.876 537.558 222.335C536.981 221.808 536.38 221.295 535.835 220.737C534.378 219.253 533.155 217.592 532.104 215.791C531.312 214.427 530.698 212.994 530.21 211.504C529.779 210.185 529.513 208.835 529.311 207.459C529.196 206.723 529.222 206 529.171 205.271C528.88 200.839 529.089 196.406 529.051 191.974C529.013 187.561 528.994 183.147 529.063 178.734C529.101 176.217 529.349 173.705 530.166 171.296C530.926 169.064 531.933 166.959 533.314 165.025C534.125 163.89 534.999 162.812 535.968 161.822C537.672 160.085 539.591 158.608 541.688 157.371C543.74 156.16 545.881 155.145 548.142 154.397C550.074 153.757 552.044 153.243 554.071 152.951C555.515 152.742 556.96 152.596 558.417 152.482C559.683 152.381 560.938 152.355 562.198 152.387C563.326 152.419 564.453 152.584 565.581 152.647C567.019 152.723 568.425 152.977 569.825 153.281C571.972 153.738 574.069 154.346 576.089 155.215C577.952 156.014 579.731 156.959 581.404 158.113C582.544 158.906 583.621 159.781 584.634 160.732C586.167 162.178 587.529 163.756 588.631 165.545C588.961 166.077 589.233 166.661 589.442 167.25C589.841 168.385 589.347 169.375 588.435 169.914C586.851 170.852 585.28 171.816 583.684 172.735C582.873 173.205 582.05 173.623 581.049 173.56C580.149 173.503 579.446 173.116 578.902 172.456C578.294 171.721 577.736 170.934 577.153 170.174C576.216 168.943 575.158 167.834 573.98 166.832C572.878 165.887 571.681 165.088 570.401 164.441C568.526 163.49 566.531 162.9 564.447 162.564C562.787 162.298 561.128 162.197 559.468 162.311C556.453 162.52 553.539 163.198 550.872 164.689C547.686 166.464 545.286 168.988 543.791 172.342C543.252 173.541 542.917 174.803 542.708 176.102C542.594 176.813 542.575 177.51 542.575 178.214C542.575 182.57 542.575 186.958 542.575 191.346Z"></path>
<path fill="white" d="M308.225 254.877C309.574 256.082 311.113 256.044 312.678 255.974C312.678 256.424 312.678 256.792 312.678 257.154C310.759 257.832 308.01 257.001 306.578 255.201C306.002 255.055 305.482 254.96 304.988 254.795C303.272 254.205 302.258 253.026 301.891 251.218C301.644 250.007 301.827 248.891 302.41 247.87C303.246 246.399 304.545 245.549 306.274 245.486C306.844 245.467 307.421 245.454 308.003 245.594C310.081 246.101 311.272 247.452 311.614 249.481C311.88 251.034 311.493 252.506 310.36 253.679C309.821 254.249 309.131 254.63 308.225 254.877ZM310.138 250.362C310.353 248.371 308.548 246.824 306.755 246.811C304.652 246.799 303.291 248.485 303.272 250.286C303.253 252.398 304.975 253.698 306.616 253.736C308.542 253.78 310.303 252.296 310.138 250.362Z"></path>
<path fill="white" d="M412.114 254.889C411.632 254.889 411.239 254.889 410.783 254.889C410.783 252.575 410.783 250.305 410.783 247.895C410.118 248.656 409.529 249.29 408.984 249.962C408.433 250.641 407.876 251.313 407.23 252.004C405.919 250.749 404.975 249.309 403.651 248.028C403.651 250.368 403.651 252.588 403.651 254.82C403.132 254.997 402.669 254.927 402.213 254.896C402.061 254.179 402.074 246.202 402.238 245.549C402.58 245.524 402.948 245.498 403.341 245.473C404.132 246.094 404.62 246.969 405.285 247.692C405.931 248.396 406.52 249.151 407.173 249.937C408.56 248.51 409.65 246.931 410.961 245.524C411.322 245.524 411.676 245.524 412.012 245.524C412.044 245.549 412.063 245.568 412.076 245.587C412.095 245.606 412.12 245.625 412.12 245.644C412.133 248.561 412.145 251.478 412.152 254.388C412.145 254.534 412.126 254.68 412.114 254.889Z"></path>
<path fill="white" d="M366.07 248.047C366.07 250.381 366.07 252.6 366.07 254.877C365.797 254.896 365.582 254.915 365.36 254.928C365.132 254.934 364.911 254.928 364.721 254.928C364.664 254.864 364.645 254.851 364.626 254.826C364.613 254.807 364.588 254.788 364.581 254.769C364.569 254.642 364.55 254.515 364.55 254.389C364.55 251.548 364.55 248.713 364.556 245.873C364.556 245.803 364.594 245.727 364.619 245.651C364.974 245.353 365.392 245.536 365.854 245.479C367.064 246.925 368.287 248.39 369.566 249.912C370.352 249.303 370.865 248.453 371.498 247.724C372.138 246.982 372.771 246.234 373.367 245.524C373.798 245.524 374.14 245.524 374.482 245.524C374.608 246.126 374.659 253.488 374.545 254.839C374.146 255.016 373.728 254.915 373.272 254.902C373.139 254.129 373.228 253.374 373.209 252.619C373.196 251.833 373.202 251.047 373.202 250.26C373.202 249.506 373.202 248.758 373.202 247.914C371.954 249.265 370.922 250.66 369.744 251.896C369.256 251.801 369.066 251.453 368.825 251.174C368.033 250.26 367.254 249.335 366.469 248.415C366.393 248.307 366.266 248.219 366.07 248.047Z"></path>
<path fill="white" d="M335.513 247.889C335.513 250.305 335.513 252.556 335.513 254.864C335.012 254.864 334.55 254.864 334.094 254.864C333.948 254.046 333.974 246.152 334.138 245.556C334.309 245.537 334.499 245.505 334.696 245.492C334.873 245.48 335.05 245.492 335.329 245.492C337.318 247.718 339.18 250.134 341.245 252.512C341.359 251.668 341.29 250.92 341.302 250.178C341.315 249.417 341.302 248.656 341.309 247.895C341.309 247.141 341.296 246.386 341.321 245.644C341.834 245.422 342.265 245.454 342.658 245.568C342.715 245.632 342.734 245.651 342.747 245.67C342.759 245.689 342.778 245.714 342.778 245.74C342.791 245.866 342.816 245.987 342.816 246.114C342.816 248.98 342.81 251.846 342.804 254.712C342.804 254.756 342.766 254.801 342.721 254.89C342.297 254.89 341.853 254.89 341.34 254.89C339.453 252.62 337.533 250.318 335.513 247.889Z"></path>
<path fill="white" d="M266.811 246.183C266.748 246.64 266.963 247.097 266.552 247.464C265.576 247.001 264.556 246.818 263.479 246.849C262.434 246.881 261.484 247.166 260.724 247.889C260.179 248.403 259.907 249.1 259.825 249.842C259.558 252.201 261.421 253.634 263.34 253.698C264.119 253.723 264.898 253.767 265.709 253.406C265.785 252.645 265.722 251.871 265.747 251.034C264.797 250.895 263.859 251.047 262.897 250.939C262.897 250.521 262.897 250.128 262.897 249.728C263.435 249.55 266.526 249.544 267.223 249.747C267.305 250.438 267.248 251.167 267.261 251.89C267.274 252.601 267.261 253.311 267.261 253.97C267.115 254.363 266.805 254.49 266.495 254.604C264.727 255.264 262.947 255.289 261.186 254.598C259.901 254.091 259.026 253.178 258.564 251.846C258.038 250.318 258.292 248.897 259.096 247.572C259.546 246.83 260.249 246.285 261.06 245.961C262.656 245.327 264.29 245.27 265.937 245.778C266.083 245.822 266.222 245.879 266.362 245.942C266.495 246.006 266.621 246.082 266.811 246.183Z"></path>
<path fill="white" d="M455.175 252.537C455.175 250.217 455.175 247.896 455.175 245.588C455.954 245.448 455.954 245.448 456.499 245.67C456.499 248.707 456.499 251.764 456.499 254.877C456.036 254.877 455.593 254.877 455.099 254.877C453.198 252.601 451.273 250.286 449.24 247.845C449.24 250.28 449.24 252.556 449.24 254.877C448.771 254.877 448.359 254.877 447.903 254.877C447.903 251.77 447.903 248.688 447.903 245.569C448.574 245.416 449.132 245.41 449.62 246.063C450.481 247.211 451.425 248.295 452.343 249.399C452.958 250.134 453.579 250.863 454.199 251.593C454.472 251.916 454.744 252.246 455.01 252.575C455.067 252.563 455.118 252.55 455.175 252.537Z"></path>
<path fill="white" d="M467.527 249.735C467.66 250.261 467.691 253.33 467.565 254.332C467.381 254.414 467.159 254.529 466.931 254.617C465.474 255.182 463.967 255.264 462.478 254.884C460.616 254.402 459.222 253.26 458.874 251.301C458.456 248.929 459.28 246.856 461.87 245.854C463.352 245.283 464.879 245.34 466.393 245.765C466.539 245.803 466.678 245.86 466.817 245.917C466.976 245.987 467.128 246.076 467.343 246.184C467.267 246.602 467.197 247.014 467.115 247.458C466.716 247.331 466.361 247.211 466.007 247.103C464.949 246.786 463.878 246.729 462.801 247.008C461.655 247.312 460.774 247.991 460.439 249.139C460.192 249.988 460.198 250.895 460.578 251.732C460.952 252.55 461.572 253.102 462.434 253.406C463.568 253.806 464.708 253.787 465.854 253.514C465.975 253.489 466.076 253.406 466.222 253.33C466.222 252.582 466.222 251.827 466.222 250.99C465.721 250.984 465.227 250.971 464.727 250.971C464.252 250.965 463.777 250.971 463.289 250.971C463.289 250.496 463.289 250.109 463.289 249.741C463.954 249.544 466.963 249.551 467.527 249.735Z"></path>
<path fill="white" d="M243.862 254.896C243.862 251.738 243.862 248.676 243.862 245.568C244.046 245.543 244.211 245.499 244.382 245.499C245.37 245.492 246.358 245.448 247.346 245.511C248.341 245.575 249.341 245.67 250.26 246.171C251.102 246.627 251.685 247.306 252.015 248.175C252.54 249.563 252.54 250.996 252.021 252.391C251.647 253.4 250.919 254.135 249.918 254.547C249.31 254.795 248.683 254.953 248.011 254.941C246.846 254.921 245.68 254.94 244.515 254.934C244.318 254.928 244.122 254.909 243.862 254.896ZM245.243 253.539C246.421 253.539 247.536 253.628 248.638 253.514C249.627 253.412 250.336 252.759 250.684 251.808C251.026 250.863 251.033 249.899 250.748 248.929C250.399 247.75 249.582 247.192 248.404 246.995C247.524 246.849 246.643 246.881 245.763 246.868C245.598 246.868 245.427 246.913 245.25 246.938C245.243 249.132 245.243 251.282 245.243 253.539Z"></path>
<path fill="white" d="M395.024 245.493C396.716 245.359 398.052 246.076 399.028 247.376C399.984 248.65 400.238 250.121 399.775 251.681C399.3 253.286 398.255 254.319 396.678 254.826C395.462 255.22 394.239 255.22 393.054 254.719C391.686 254.135 390.73 253.165 390.305 251.694C389.849 250.128 390.09 248.657 391.04 247.382C392.009 246.095 393.321 245.328 395.024 245.493ZM395.107 246.849C393.435 246.691 392.022 247.889 391.718 249.272C391.617 249.735 391.617 250.223 391.629 250.698C391.642 251.434 391.952 252.043 392.421 252.607C393.511 253.92 395.474 253.983 396.722 253.33C398.363 252.468 398.724 251.003 398.363 249.253C398.065 247.858 396.589 246.723 395.107 246.849Z"></path>
<path fill="white" d="M415.123 245.556C415.351 245.531 415.541 245.493 415.737 245.493C416.776 245.487 417.815 245.467 418.847 245.499C419.341 245.512 419.842 245.613 420.33 245.715C421.514 245.956 422.496 247.401 422.483 248.524C422.477 249.19 422.464 249.83 422.135 250.439C421.66 251.32 420.925 251.859 419.956 252.03C419.392 252.132 418.809 252.151 418.233 252.176C417.707 252.202 417.175 252.183 416.561 252.183C416.548 252.677 416.542 253.121 416.535 253.565C416.529 253.99 416.535 254.415 416.535 254.884C416.022 254.884 415.579 254.884 415.135 254.884C415.002 254.351 414.971 246.45 415.123 245.556ZM416.567 250.8C417.549 250.8 418.455 250.813 419.36 250.794C419.576 250.788 419.797 250.686 420.007 250.604C420.691 250.318 421.204 249.462 421.09 248.689C420.969 247.877 420.634 247.224 419.715 247.002C418.835 246.786 417.954 246.92 417.08 246.875C416.915 246.869 416.744 246.92 416.567 246.945C416.567 248.219 416.567 249.456 416.567 250.8Z"></path>
<path fill="white" d="M313.85 245.549C314.325 245.549 314.737 245.549 315.231 245.549C315.256 245.847 315.294 246.114 315.294 246.38C315.301 248.054 315.339 249.722 315.282 251.396C315.237 252.658 315.807 253.336 316.986 253.615C317.904 253.831 318.848 253.824 319.665 253.216C320.178 252.835 320.482 252.36 320.476 251.687C320.457 249.937 320.469 248.193 320.469 246.443C320.469 246.171 320.488 245.898 320.495 245.657C321.096 245.442 321.274 245.435 321.92 245.625C321.939 245.797 321.983 245.987 321.983 246.183C321.99 247.984 322.028 249.779 321.971 251.58C321.92 253.26 321.058 254.414 319.469 254.877C318.303 255.213 317.125 255.194 315.985 254.769C314.661 254.281 313.844 253.247 313.793 251.795C313.73 249.874 313.774 247.946 313.78 246.019C313.78 245.898 313.818 245.778 313.85 245.549Z"></path>
<path fill="white" d="M424.51 245.55C424.96 245.55 425.347 245.55 425.784 245.55C425.796 245.753 425.828 245.949 425.828 246.146C425.834 247.769 425.815 249.386 425.841 251.009C425.847 251.434 425.91 251.865 426.031 252.271C426.271 253.076 427.114 253.647 428.064 253.698C428.393 253.717 428.723 253.717 429.052 253.698C429.895 253.641 430.534 253.216 430.959 252.506C431.104 252.265 431.13 251.929 431.136 251.637C431.149 249.887 431.142 248.143 431.142 246.393C431.142 246.146 431.142 245.898 431.142 245.657C431.681 245.429 432.131 245.429 432.612 245.632C432.631 245.822 432.663 245.994 432.663 246.165C432.669 247.915 432.675 249.659 432.663 251.409C432.656 252.094 432.479 252.753 432.15 253.362C431.681 254.224 430.87 254.643 429.996 254.909C428.856 255.251 427.697 255.169 426.582 254.757C425.353 254.3 424.491 253.254 424.46 251.815C424.422 249.893 424.447 247.966 424.453 246.038C424.453 245.911 424.479 245.784 424.51 245.55Z"></path>
<path fill="white" d="M288.937 254.896C288.418 254.896 287.975 254.896 287.481 254.896C287.202 254.211 286.923 253.545 286.632 252.835C285.156 252.835 283.674 252.835 282.134 252.835C281.989 253.184 281.843 253.526 281.697 253.869C281.552 254.211 281.4 254.554 281.254 254.896C280.747 254.896 280.298 254.896 279.759 254.896C281.064 251.744 282.343 248.637 283.636 245.524C284.123 245.524 284.548 245.524 284.966 245.524C285.321 245.968 288.608 253.697 288.937 254.896ZM282.622 251.497C283.75 251.624 285.555 251.592 286.093 251.44C285.53 250.089 284.966 248.745 284.377 247.337C283.775 248.764 283.211 250.108 282.622 251.497Z"></path>
<path fill="white" d="M332.416 254.896C331.89 254.896 331.447 254.896 330.965 254.896C330.68 254.205 330.408 253.539 330.116 252.835C328.634 252.835 327.152 252.835 325.619 252.835C325.334 253.514 325.055 254.186 324.764 254.883C324.264 254.883 323.795 254.883 323.263 254.883C324.561 251.744 325.841 248.637 327.127 245.524C327.621 245.524 328.039 245.524 328.45 245.524C328.837 246.025 332.105 253.736 332.416 254.896ZM329.591 251.478C329.021 250.102 328.463 248.745 327.868 247.306C327.272 248.764 326.645 250.108 326.132 251.561C327.26 251.561 328.292 251.561 329.318 251.561C329.388 251.561 329.458 251.523 329.591 251.478Z"></path>
<path fill="white" d="M360.445 245.556C360.946 245.556 361.338 245.556 361.775 245.556C361.794 245.701 361.826 245.841 361.826 245.987C361.826 247.94 361.845 249.893 361.82 251.846C361.807 253.038 361.231 253.976 360.198 254.49C358.387 255.397 356.55 255.416 354.846 254.167C354.193 253.691 353.775 253.006 353.763 252.176C353.737 250.045 353.756 247.914 353.756 245.784C353.756 245.714 353.794 245.644 353.826 245.524C354.238 245.486 354.649 245.397 355.124 245.67C355.124 245.892 355.124 246.139 355.124 246.386C355.124 248.035 355.124 249.684 355.124 251.332C355.124 252.645 355.79 253.463 357.107 253.666C357.829 253.774 358.558 253.723 359.254 253.393C360.091 252.994 360.42 252.309 360.433 251.44C360.452 249.766 360.439 248.092 360.439 246.418C360.445 246.171 360.445 245.923 360.445 245.556Z"></path>
<path fill="white" d="M595.416 155.374C597.855 155.19 599.939 157.466 599.926 159.863C599.907 162.419 597.614 164.46 595.321 164.416C592.946 164.372 590.792 162.311 590.881 159.819C590.969 157.232 592.787 155.374 595.416 155.374ZM595.422 156.477C593.478 156.382 591.957 158.278 591.964 159.85C591.97 161.702 593.471 163.249 595.308 163.262C597.322 163.275 598.748 161.823 598.792 159.844C598.836 158.037 597.284 156.49 595.422 156.477Z"></path>
<path fill="white" d="M388.69 253.146C388.766 253.564 388.842 253.976 388.918 254.414C388.696 254.509 388.544 254.585 388.386 254.642C386.764 255.276 385.13 255.27 383.527 254.623C382.311 254.128 381.386 253.304 380.949 252.017C380.392 250.362 380.512 248.802 381.551 247.337C381.963 246.754 382.514 246.354 383.109 246.05C383.774 245.714 384.49 245.473 385.276 245.46C386.441 245.448 387.594 245.479 388.702 246.05C388.728 246.475 388.81 246.925 388.512 247.394C388.348 247.325 388.177 247.236 387.993 247.179C386.688 246.773 385.383 246.652 384.072 247.153C383.059 247.54 382.21 248.694 382.191 249.766C382.185 249.994 382.197 250.222 382.185 250.451C382.128 251.77 382.786 252.664 383.901 253.241C384.801 253.704 385.789 253.799 386.777 253.653C387.391 253.57 387.987 253.342 388.69 253.146Z"></path>
<path fill="white" d="M352.027 245.492C352.027 246.038 352.027 246.45 352.027 246.938C351.051 247.097 350.095 246.938 349.113 247.04C348.974 247.699 349.062 248.352 349.05 249.005C349.031 249.665 349.043 250.324 349.043 250.977C349.043 251.612 349.043 252.246 349.043 252.873C349.043 253.527 349.043 254.18 349.043 254.877C348.758 254.896 348.536 254.915 348.321 254.928C348.099 254.934 347.871 254.928 347.612 254.928C347.441 254.243 347.548 253.59 347.529 252.943C347.51 252.284 347.523 251.624 347.523 250.971C347.523 250.337 347.523 249.703 347.523 249.075C347.523 248.422 347.523 247.769 347.523 247.033C346.522 247.014 345.578 247.002 344.66 246.983C344.438 246.399 344.432 246.228 344.622 245.55C345.388 245.435 346.193 245.511 346.991 245.499C347.827 245.486 348.663 245.499 349.493 245.499C350.31 245.492 351.115 245.492 352.027 245.492Z"></path>
<path fill="white" d="M275.774 247.046C274.716 246.932 273.754 247.11 272.778 246.926C272.778 246.463 272.778 246.063 272.778 245.638C272.93 245.588 273.063 245.499 273.203 245.499C275.451 245.493 277.706 245.499 279.955 245.499C280.025 245.499 280.101 245.543 280.189 245.569C280.417 245.987 280.341 246.425 280.24 246.932C279.29 247.09 278.333 246.926 277.32 247.04C277.256 247.902 277.301 248.758 277.294 249.608C277.288 250.496 277.294 251.383 277.294 252.265C277.294 253.121 277.294 253.977 277.294 254.877C276.775 254.877 276.338 254.877 275.85 254.877C275.692 254.237 275.8 253.577 275.781 252.931C275.762 252.271 275.774 251.612 275.774 250.958C275.774 250.324 275.774 249.69 275.774 249.056C275.774 248.409 275.774 247.756 275.774 247.046Z"></path>
<path fill="white" d="M434.367 246.97C434.348 246.723 434.329 246.526 434.329 246.33C434.322 246.083 434.329 245.835 434.329 245.601C435.013 245.448 441.011 245.448 441.632 245.582C441.829 246.089 441.835 246.266 441.651 246.945C440.739 247.091 439.776 246.932 438.756 247.046C438.756 249.665 438.756 252.259 438.756 254.89C438.275 254.89 437.882 254.89 437.445 254.89C437.287 254.243 437.394 253.59 437.375 252.944C437.356 252.284 437.369 251.625 437.369 250.971C437.369 250.337 437.369 249.703 437.369 249.076C437.369 248.422 437.369 247.769 437.369 247.072C436.368 246.926 435.412 247.059 434.367 246.97Z"></path>
<path fill="white" d="M290.61 245.581C291.085 245.46 291.522 245.409 292.022 245.65C292.048 246.494 292.035 247.35 292.035 248.199C292.041 249.087 292.035 249.975 292.035 250.856C292.035 251.712 292.035 252.575 292.035 253.456C292.637 253.64 293.22 253.526 293.79 253.545C294.347 253.564 294.905 253.551 295.462 253.551C296.038 253.551 296.615 253.551 297.147 253.551C297.489 253.989 297.324 254.401 297.35 254.781C296.843 254.959 291.902 255.016 290.635 254.87C290.496 254.344 290.464 246.424 290.61 245.581Z"></path>
<path fill="white" d="M443.501 254.89C443.501 251.763 443.501 248.713 443.501 245.663C443.95 245.391 444.387 245.486 444.862 245.562C444.9 245.714 444.97 245.854 444.97 245.993C444.976 248.853 444.976 251.706 444.97 254.566C444.97 254.661 444.938 254.756 444.919 254.89C444.451 254.89 444.007 254.89 443.501 254.89Z"></path>
<path fill="white" d="M256.132 254.896C255.619 254.896 255.175 254.896 254.745 254.896C254.612 254.262 254.599 246.304 254.732 245.626C255.15 245.404 255.581 245.48 255.98 245.562C256.037 245.619 256.056 245.632 256.069 245.657C256.081 245.676 256.1 245.702 256.107 245.721C256.126 245.765 256.145 245.816 256.145 245.867C256.151 248.676 256.151 251.485 256.157 254.288C256.157 254.452 256.145 254.63 256.132 254.896Z"></path>
<path fill="white" d="M271.03 254.883C270.51 254.883 270.067 254.883 269.63 254.883C269.49 254.078 269.509 246.19 269.655 245.594C270.073 245.423 270.504 245.448 270.897 245.562C270.954 245.625 270.973 245.644 270.992 245.663C271.004 245.683 271.023 245.708 271.023 245.733C271.036 248.612 271.049 251.497 271.061 254.376C271.061 254.528 271.042 254.674 271.03 254.883Z"></path>
<path fill="white" d="M594.694 161.911C594.333 161.911 594.042 161.911 593.757 161.911C593.611 161.359 593.579 158.506 593.706 157.612C594.181 157.498 595.796 157.46 596.164 157.561C596.937 157.764 597.31 158.233 597.317 159.02C597.329 159.831 597.26 159.977 596.62 160.497C596.899 160.935 597.177 161.372 597.513 161.898C597.044 161.898 596.677 161.898 596.259 161.898C596.037 161.537 595.796 161.163 595.549 160.763C595.302 160.763 595.055 160.763 594.77 160.763C594.745 161.137 594.726 161.48 594.694 161.911ZM594.745 158.525C594.739 158.963 594.669 159.362 594.796 159.755C595.315 159.812 595.79 159.869 596.164 159.47C596.291 158.493 596.062 158.335 594.745 158.525Z"></path>
</g>
<defs>
<clipPath id="clip0">
<rect fill="white" height="263" width="849"></rect>
</clipPath>
</defs>
</svg>
