<svg xmlns="http://www.w3.org/2000/svg" fill="none" viewBox="0 0 850 263" height="263" width="850">
<path fill="white" d="M182.334 71.4273H157.495V103.934H137V124.769H157.495V208.718H182.334V124.837H202.422V104.002H182.334V71.4273ZM264.178 100.881C232.35 100.881 211.583 123.547 211.583 156.462C211.583 189.512 232.757 211.5 263.839 211.5C285.556 211.5 303.676 200.71 311.548 182.25L290.51 174.039C285.759 183.743 277.005 189.919 263.839 189.919C249.791 189.919 237.168 182.997 235.336 165.827H315.552V156.53C315.552 122.801 295.26 100.881 264.178 100.881ZM235.675 148.047C237.847 131.08 248.298 121.919 263.432 121.919C278.566 121.919 288.813 130.334 289.899 148.047H235.675ZM392.85 104.002L370.387 140.174C362.514 127.551 354.506 114.929 346.634 104.002H316.841L354.506 157.344L317.927 208.718H346.43L368.554 173.835C375.341 184.626 384.299 198.674 391.425 208.718H421.014L384.638 157.14L421.76 104.138L392.85 104.002ZM524.032 51.8822C515.074 51.8822 508.288 58.8044 508.288 67.7626C508.288 76.7207 515.074 83.6429 524.032 83.6429C532.787 83.4393 539.777 76.3135 539.777 67.7626C539.777 59.2116 532.651 51.8822 524.032 51.8822ZM473.405 71.4273H448.702V103.934H428.207V124.769H448.702V208.718H473.405V124.837H511.206V208.718H536.248V104.206H473.405V71.4273ZM563.869 208.718H588.911V51H563.869V208.718ZM712.968 156.258C712.968 122.665 692.472 100.881 661.594 100.881C629.765 100.881 608.999 123.547 608.999 156.462C608.999 189.512 630.173 211.5 661.255 211.5C682.971 211.5 701.091 200.71 708.964 182.25L687.925 174.039C683.175 183.743 674.42 189.919 661.255 189.919C647.207 189.919 634.584 182.997 632.751 165.623H712.968V156.258ZM633.159 148.047C635.33 131.08 645.782 121.919 660.915 121.919C675.913 121.919 686.297 130.334 687.383 148.047H633.159Z"></path>
</svg>
