<svg xmlns="http://www.w3.org/2000/svg" fill="none" viewBox="0 0 850 263" height="263" width="850">
<g clip-path="url(#clip0)">
<path fill="white" d="M383.37 164.75V84.6748H360.5V186.23H424.39V164.73L383.37 164.75Z"></path>
<path fill="white" d="M469.935 188C493.095 188 510.51 171.06 510.51 148.705C510.51 126.35 493.095 109.4 469.935 109.4C446.775 109.4 429.355 126.34 429.355 148.705C429.355 171.07 446.765 188 469.935 188ZM469.935 167.25C459.305 167.25 451.49 159.3 451.49 148.705C451.49 138.11 459.305 130.175 469.935 130.175C480.565 130.175 488.38 138.12 488.38 148.72C488.38 159.32 480.53 167.265 469.935 167.265V167.25Z"></path>
<path fill="white" d="M564.635 130.745V111.175H548.24V91.4502H527.9V105C527.9 109.127 525.833 111.19 521.7 111.19H515.36V130.76H526.715V161.82C526.715 177.86 535.865 186.255 553.87 186.255H564.635V166.66H557.135C551.535 166.66 548.285 163.57 548.285 158.275V130.745H564.635Z"></path>
<path fill="white" d="M619.935 130.745V111.175H603.54V91.4502H583.195V105C583.195 109.127 581.127 111.19 576.99 111.19H570.65V130.76H582V161.82C582 177.86 591.145 186.255 609.15 186.255H619.925V166.66H612.395C606.79 166.66 603.54 163.57 603.54 158.275V130.745H619.935Z"></path>
<path fill="white" d="M632.54 186.23H654.08V111.17H632.54V186.23Z"></path>
<path fill="white" d="M656.5 88.6303C656.458 86.4053 655.947 84.2143 655 82.2003C654.245 80.2003 653 79.7303 652 79.2353C649.73 78.0003 646.955 75.7753 643.675 75.5303C636.365 75.0303 631.07 81.2153 630.565 87.8853C630.565 89.6153 630.565 91.3453 631.065 92.8303C631.565 94.3153 632.83 95.5503 633.835 96.5353C636.335 98.5353 639.385 100.245 643.165 100.49C650.425 100.74 656.5 95.0553 656.5 88.6303Z"></path>
<path fill="white" d="M742 149C742 126.185 724.435 109.405 701.425 109.405C678.26 109.405 660.845 126.34 660.845 148.705C660.845 171.07 678.26 188 701.575 188C720.165 188 735.215 177.55 740.805 162.39H717.805C715.005 166.365 709.105 169.31 701.995 169.31C692.85 169.31 686.185 164.015 683.845 155.62H741.385C741.818 153.441 742.024 151.222 742 149V149ZM701.425 127.97C705.413 127.905 709.305 129.191 712.468 131.619C715.631 134.048 717.879 137.476 718.845 141.345H684C686.5 133.08 693 127.955 701.41 127.955L701.425 127.97Z"></path>
<path fill="white" d="M238.33 159.72C233.895 159.515 229.405 159.22 225.005 158.69C217.635 157.825 208.08 155.945 204.885 149.78C203.3 146.725 203.58 143.485 204.25 140.35C203.188 143.486 201.837 146.517 200.215 149.405C199.368 150.916 198.363 152.332 197.215 153.63C196.315 154.665 195.221 155.515 193.995 156.13C192.875 156.673 191.617 156.867 190.385 156.685C189.559 156.544 188.765 156.256 188.04 155.835C189.76 156.835 191.355 157.895 192.825 158.695C194.535 159.535 196.675 160.38 197.955 163.74C198.799 165.469 199.432 167.294 199.84 169.175C199.833 168.863 199.894 168.554 200.02 168.27C202.11 167.68 204.245 167.21 206.355 166.7C207.765 166.355 209.185 166.025 210.605 165.735C214.44 164.94 218.27 164.145 222.105 163.38C227.485 162.3 232.875 161.265 238.285 160.345C239.515 160.135 240.745 159.94 241.975 159.745C240.765 159.79 239.545 159.78 238.33 159.72Z"></path>
<path fill="white" d="M238.445 156.755C238.79 156.78 239.31 156.795 238.445 156.755V156.755Z"></path>
<path fill="white" d="M214.5 24C155.13 24 107 72.13 107 131.5C107 190.87 155.13 239 214.5 239C273.87 239 322 190.87 322 131.5C322 72.13 273.87 24 214.5 24ZM283.5 153.805C283.195 156.02 282.865 158.245 282.35 160.43C281.825 162.638 281.114 164.797 280.225 166.885C278.585 170.765 276.845 174.59 274.475 178.09C272.215 181.506 269.377 184.502 266.09 186.945C262.06 189.865 257.365 191.785 252.59 193.055C247.313 194.44 241.855 195.015 236.405 194.76C227.93 194.39 219.475 191.49 212.905 186.095C211.4 184.834 209.981 183.473 208.66 182.02C207.37 180.645 206.065 179.285 204.835 177.86C203.519 176.386 202.354 174.783 201.36 173.075C200.895 172.301 200.496 171.49 200.165 170.65C200.412 171.983 200.544 173.335 200.56 174.69C200.56 185.62 190.29 195.29 177.88 194.87C171.46 194.45 166.325 191.51 162.05 188.145C160.335 186.46 158.195 184.36 157.34 181.835C156.485 179.31 156.485 176.37 156.485 173.425C157.34 162.075 166.325 151.565 178.735 152.425C182.075 152.675 185.105 154.145 187.83 155.73C187.414 155.478 187.013 155.2 186.63 154.9C185.083 153.59 183.72 152.076 182.58 150.4C180.79 147.955 179.75 144.985 178.925 142.1C177.965 138.76 177.3 135.34 176.635 131.93C176.21 129.735 175.8 127.53 175.28 125.35C175.26 125.4 175.236 125.448 175.21 125.495C175.01 126.635 174.76 127.765 174.5 128.89C174.437 129.288 174.222 129.647 173.9 129.89C173.225 131.493 172.387 133.023 171.4 134.455C170.24 136.21 168.838 137.792 167.235 139.155C165.98 140.185 164.4 141.255 162.705 141.245C161.01 141.235 159.74 140.055 159.01 138.575C158.444 137.394 158.046 136.141 157.825 134.85C157.484 133.052 157.295 131.229 157.26 129.4C157.085 121.19 159.515 113.215 161.09 105.235C161.72 102.07 162.14 98.795 162.645 95.565C163.164 91.9686 163.871 88.402 164.765 84.88C165.655 81.545 166.795 78.22 168.64 75.285C169.38 74.09 170.26 72.9873 171.26 72C171.973 71.2612 172.792 70.6326 173.69 70.135C174.905 69.505 176.335 69.295 177.52 70.135C178.805 71.045 179.545 72.55 180.09 73.99C180.789 75.9537 181.292 77.982 181.59 80.045C181.98 82.405 182.245 84.785 182.43 87.165C182.685 90.38 182.775 93.605 182.93 96.825C184.89 92.5292 187.519 88.5716 190.72 85.1C194.26 81.37 199.22 78.21 204.54 79.675C206.799 80.2292 208.765 81.6193 210.04 83.565C211.355 85.655 211.955 88.105 212.26 90.53C212.93 95.885 212.26 101.355 211.6 106.68C211.235 109.55 210.915 112.42 210.445 115.275C209.855 118.848 209.158 122.4 208.355 125.93C207.918 127.827 207.45 129.713 206.95 131.59C207.903 129.223 208.975 126.905 210.16 124.645C213.71 117.805 218.125 111.295 222.565 104.815C225.905 99.8616 229.498 95.0836 233.33 90.5C237.33 85.745 241.79 81 247.535 77.45C249.989 75.8699 252.752 74.8334 255.64 74.41C257.449 74.1898 259.282 74.2709 261.065 74.65C262.507 74.9746 263.877 75.5628 265.105 76.385C265.25 76.479 265.368 76.608 265.45 76.76C265.529 76.8959 265.564 77.0532 265.55 77.21C265.82 77.3505 266.082 77.5057 266.335 77.675C268.78 79.31 269.89 81.81 270.395 84.21C273.645 99.785 270.655 117.04 269.075 132.545C268.785 135.348 268.336 138.133 267.73 140.885C267.174 143.557 266.227 146.133 264.92 148.53C263.606 150.88 261.822 152.934 259.68 154.565C257.485 156.181 255.03 157.409 252.42 158.195L254.495 157.895C257.15 157.51 259.8 157.1 262.435 156.605C266.68 155.805 270.905 154.99 275.12 154.03C276.02 153.825 282.93 151.665 283.53 152.61C283.86 153.15 283.57 153.31 283.5 153.805Z"></path>
</g>
<defs>
<clipPath id="clip0">
<rect transform="translate(107 24)" fill="white" height="215" width="635"></rect>
</clipPath>
</defs>
</svg>
